<?xml version="1.0" encoding="UTF-8" standalone="no"?>
<!DOCTYPE svg PUBLIC "-//W3C//DTD SVG 1.1//EN" "http://www.w3.org/Graphics/SVG/1.1/DTD/svg11.dtd">
<svg xmlns="http://www.w3.org/2000/svg" version="1.1" viewBox="0.00 0.00 270.00 180.00">
<g stroke-width="2.00" fill="none" stroke-linecap="butt">
<path stroke="#a53303" vector-effect="non-scaling-stroke" d="
  M 113.89 28.77
  C 113.15 27.96 112.38 27.90 111.57 28.61
  C 110.96 29.15 111.03 29.58 111.78 29.90
  C 112.81 30.34 113.58 30.12 114.11 29.24"
/>
<path stroke="#812505" vector-effect="non-scaling-stroke" d="
  M 113.96 35.16
  C 111.71 35.44 110.61 35.08 110.67 34.08"
/>
<path stroke="#812505" vector-effect="non-scaling-stroke" d="
  M 107.73 42.94
  L 107.57 45.76
  C 107.51 46.86 108.34 47.81 109.44 47.89
  L 114.43 48.27
  C 116.04 48.39 117.26 46.85 116.77 45.31
  L 115.66 41.82
  C 115.58 41.56 115.42 41.37 115.18 41.25
  C 112.13 39.73 109.77 40.33 108.10 43.05
  C 108.07 43.10 108.02 43.11 107.96 43.08
  C 107.88 43.03 107.80 42.99 107.73 42.94"
/>
<path stroke="#c24e07" vector-effect="non-scaling-stroke" d="
  M 201.01 30.38
  C 199.91 31.79 198.15 32.12 195.74 31.37"
/>
<path stroke="#8d3b06" vector-effect="non-scaling-stroke" d="
  M 195.74 31.37
  C 195.73 31.26 195.72 31.16 195.71 31.06"
/>
<path stroke="#fba411" vector-effect="non-scaling-stroke" d="
  M 195.71 31.06
  C 197.12 31.13 198.01 29.57 199.33 30.21
  C 199.78 30.42 200.27 30.02 200.15 29.54
  C 199.74 27.89 198.84 26.56 197.45 25.56
  C 197.04 25.27 196.48 25.34 196.15 25.71
  C 195.08 26.90 194.55 28.34 194.56 30.01"
/>
<path stroke="#91700e" vector-effect="non-scaling-stroke" d="
  M 195.71 31.06
  L 195.23 30.84"
/>
<path stroke="#6d1d03" vector-effect="non-scaling-stroke" d="
  M 209.13 41.30
  C 206.71 42.09 204.17 42.37 201.50 42.13
  C 201.11 42.10 200.91 42.28 200.91 42.67
  L 200.90 44.95"
/>
<path stroke="#4d1904" vector-effect="non-scaling-stroke" d="
  M 186.25 43.74
  C 186.56 43.19 186.36 42.43 185.64 41.45"
/>
<path stroke="#591b04" vector-effect="non-scaling-stroke" d="
  M 192.27 31.41
  C 192.17 31.68 192.13 31.94 192.14 32.18
  C 192.15 32.52 192.33 32.72 192.66 32.78
  C 196.77 33.52 197.80 33.05 195.74 31.37"
/>
<path stroke="#f89c17" vector-effect="non-scaling-stroke" d="
  M 74.21 33.74
  L 74.01 29.67
  C 74.00 29.44 73.92 29.22 73.79 29.03
  L 71.55 25.86
  C 71.20 25.38 70.48 25.43 70.20 25.95
  C 68.96 28.29 66.64 31.28 68.92 33.85
  C 69.11 34.08 69.36 34.19 69.67 34.19
  L 73.48 34.22"
/>
<path stroke="#8b330c" vector-effect="non-scaling-stroke" d="
  M 73.48 34.22
  L 71.79 35.14
  C 71.50 35.31 71.20 35.31 70.90 35.15
  C 68.89 34.06 65.28 34.85 62.98 34.86"
/>
<path stroke="#f56710" stroke-opacity="0.996" vector-effect="non-scaling-stroke" d="
  M 62.98 34.86
  C 64.04 34.77 64.63 34.55 64.74 34.20"
/>
<path stroke="#4c1205" vector-effect="non-scaling-stroke" d="
  M 81.70 34.92
  C 80.77 36.29 79.23 36.89 77.09 36.72"
/>
<path stroke="#8d3b06" vector-effect="non-scaling-stroke" d="
  M 77.09 36.72
  L 62.60 36.55
  C 61.82 36.54 61.37 35.65 61.81 34.99
  C 61.91 34.84 62.30 34.79 62.98 34.86"
/>
<path stroke="#b54508" vector-effect="non-scaling-stroke" d="
  M 77.09 36.72
  C 77.94 37.80 77.33 38.42 75.24 38.59
  C 69.92 39.00 64.30 39.15 59.21 37.26"
/>
<path stroke="#91700e" vector-effect="non-scaling-stroke" d="
  M 74.21 33.74
  L 73.48 34.22"
/>
<path stroke="#c0460c" vector-effect="non-scaling-stroke" d="
  M 161.79 32.94
  C 158.81 32.71 155.98 33.74 153.18 32.93"
/>
<path stroke="#f7ab7f" vector-effect="non-scaling-stroke" d="
  M 153.18 32.93
  C 157.14 32.16 153.10 26.87 151.88 25.59
  C 151.65 25.35 151.42 25.36 151.19 25.61
  C 149.77 27.21 148.02 30.68 149.85 32.53"
/>
<path stroke="#c0460c" vector-effect="non-scaling-stroke" d="
  M 149.85 32.53
  C 146.46 33.46 144.10 33.23 142.76 31.82"
/>
<path stroke="#c59276" vector-effect="non-scaling-stroke" d="
  M 153.18 32.93
  C 152.77 32.66 152.43 32.18 152.15 31.51
  C 152.04 31.25 151.67 31.25 151.56 31.51
  L 151.11 32.51
  C 150.96 32.86 150.70 32.99 150.33 32.89
  C 150.12 32.84 149.96 32.72 149.85 32.53"
/>
<path stroke="#b63b05" vector-effect="non-scaling-stroke" d="
  M 246.07 35.44
  L 244.96 35.57"
/>
<path stroke="#ee910f" vector-effect="non-scaling-stroke" d="
  M 244.96 35.57
  C 247.06 31.94 244.06 30.13 241.72 28.05
  C 241.44 27.80 241.19 27.84 240.98 28.15
  L 238.11 32.38
  C 237.47 33.32 237.80 34.60 238.82 35.11
  C 240.43 35.91 242.44 36.14 244.83 35.80"
/>
<path stroke="#b63b05" vector-effect="non-scaling-stroke" d="
  M 244.83 35.80
  C 242.02 36.63 239.57 36.60 237.50 35.72"
/>
<path stroke="#c6840e" vector-effect="non-scaling-stroke" d="
  M 244.96 35.57
  C 245.06 35.70 245.02 35.77 244.83 35.80"
/>
<path stroke="#591b04" vector-effect="non-scaling-stroke" d="
  M 249.63 37.19
  C 246.52 36.83 244.02 36.86 240.30 36.56
  C 238.45 36.41 236.65 36.77 234.90 37.63"
/>
<path stroke="#4d1904" vector-effect="non-scaling-stroke" d="
  M 251.66 36.24
  C 251.57 36.27 251.44 36.08 251.26 35.68"
/>
<path stroke="#4d1904" vector-effect="non-scaling-stroke" d="
  M 232.68 35.46
  L 232.09 36.29"
/>
<path stroke="#b54508" vector-effect="non-scaling-stroke" d="
  M 255.93 34.40
  C 254.49 39.64 248.28 41.79 243.57 42.34"
/>
<path stroke="#f56710" stroke-opacity="0.996" vector-effect="non-scaling-stroke" d="
  M 243.57 42.34
  L 242.72 41.49"
/>
<path stroke="#a13d06" vector-effect="non-scaling-stroke" d="
  M 242.72 41.49
  C 242.55 40.89 242.28 40.42 241.89 40.07
  C 241.60 39.82 241.35 39.85 241.14 40.17
  C 240.85 40.60 240.63 41.13 240.49 41.76"
/>
<path stroke="#f56710" stroke-opacity="0.996" vector-effect="non-scaling-stroke" d="
  M 240.49 41.76
  C 240.07 42.01 239.68 42.14 239.31 42.13"
/>
<path stroke="#b54508" vector-effect="non-scaling-stroke" d="
  M 239.31 42.13
  C 235.84 41.51 225.96 38.50 227.64 33.79"
/>
<path stroke="#813907" vector-effect="non-scaling-stroke" d="
  M 227.64 33.79
  C 227.83 33.08 228.22 32.51 228.81 32.10"
/>
<path stroke="#813907" vector-effect="non-scaling-stroke" d="
  M 231.98 31.59
  L 230.00 32.91
  C 229.74 33.09 229.59 33.40 229.62 33.72
  C 229.74 34.91 230.56 35.76 232.09 36.29"
/>
<path stroke="#c24e07" vector-effect="non-scaling-stroke" d="
  M 232.09 36.29
  C 233.24 37.20 234.18 37.65 234.90 37.63"
/>
<path stroke="#8d3b06" vector-effect="non-scaling-stroke" d="
  M 234.90 37.63
  C 240.07 39.08 244.98 38.94 249.63 37.19"
/>
<path stroke="#c24e07" vector-effect="non-scaling-stroke" d="
  M 249.63 37.19
  C 250.39 37.17 251.07 36.85 251.66 36.24"
/>
<path stroke="#813907" vector-effect="non-scaling-stroke" d="
  M 251.66 36.24
  C 253.09 35.62 253.86 34.81 253.97 33.81
  C 254.01 33.44 253.87 33.17 253.55 32.99
  L 250.97 31.54"
/>
<path stroke="#b33d0d" vector-effect="non-scaling-stroke" d="
  M 239.31 42.13
  L 239.86 42.13
  C 240.33 42.13 240.43 42.32 240.18 42.71
  L 239.44 43.84
  C 239.22 44.17 238.79 44.26 238.46 44.05
  C 236.74 42.94 234.92 42.04 233.00 41.37
  C 230.99 40.66 229.86 39.35 228.09 38.26
  C 227.73 38.04 227.56 38.14 227.57 38.56
  C 227.63 40.53 229.86 41.99 231.34 42.80
  C 231.62 42.95 231.90 42.95 232.18 42.80
  C 233.35 42.17 234.34 42.45 235.15 43.64
  C 235.62 44.35 236.27 44.66 237.08 44.55
  C 237.41 44.51 237.74 44.55 238.05 44.66
  C 239.40 45.16 240.80 45.34 242.27 45.19
  C 242.66 45.16 242.86 44.95 242.89 44.56
  L 243.06 42.34
  C 243.07 42.24 243.14 42.16 243.24 42.13
  C 243.39 42.08 243.50 42.15 243.57 42.34"
/>
<path stroke="#401005" vector-effect="non-scaling-stroke" d="
  M 227.64 33.79
  C 227.51 33.75 227.32 33.93 227.07 34.32"
/>
<path stroke="#9f350b" vector-effect="non-scaling-stroke" d="
  M 240.49 41.76
  L 242.72 41.49"
/>
<path stroke="#a93206" vector-effect="non-scaling-stroke" d="
  M 154.69 79.73
  L 153.05 80.29"
/>
<path stroke="#401005" vector-effect="non-scaling-stroke" d="
  M 155.79 80.26
  C 155.83 80.35 155.86 80.43 155.88 80.51
  C 155.92 80.74 155.83 80.88 155.60 80.95
  L 154.61 81.22"
/>
<path stroke="#631e03" vector-effect="non-scaling-stroke" d="
  M 157.47 80.72
  C 157.06 81.19 156.67 81.53 156.31 81.72"
/>
<path stroke="#4b6713" vector-effect="non-scaling-stroke" d="
  M 199.99 69.83
  C 199.40 70.23 199.06 70.74 198.96 71.36"
/>
<path stroke="#4b6713" vector-effect="non-scaling-stroke" d="
  M 196.88 79.12
  C 196.77 79.58 196.56 79.73 196.26 79.57"
/>
<path stroke="#4b6713" vector-effect="non-scaling-stroke" d="
  M 191.85 74.73
  C 192.61 73.97 193.15 72.93 193.47 71.61"
/>
<path stroke="#b33d0d" vector-effect="non-scaling-stroke" d="
  M 123.48 65.45
  C 123.13 65.30 122.82 65.50 122.56 66.07
  C 122.42 66.37 122.19 66.61 121.90 66.77
  C 121.02 67.24 120.14 67.67 119.26 68.08
  C 118.85 68.27 118.40 68.24 117.90 67.97
  C 117.73 67.88 117.61 67.92 117.52 68.09
  L 117.08 68.98
  C 116.91 69.32 116.63 69.48 116.24 69.45
  C 115.55 69.40 115.08 68.79 114.82 67.64"
/>
<path stroke="#b33d0d" vector-effect="non-scaling-stroke" d="
  M 114.79 72.17
  C 114.77 71.16 114.68 70.52 114.52 70.25
  C 114.26 69.82 113.76 69.65 113.03 69.75"
/>
<path stroke="#7c6847" vector-effect="non-scaling-stroke" d="
  M 114.47 72.52
  C 112.96 72.64 112.16 72.14 112.05 71.01"
/>
<path stroke="#093a3e" vector-effect="non-scaling-stroke" d="
  M 110.19 76.93
  C 107.47 79.43 104.82 85.29 101.11 79.18"
/>
<path stroke="#b63b05" vector-effect="non-scaling-stroke" d="
  M 83.22 71.78
  L 83.12 73.10
  C 83.09 73.49 82.88 73.72 82.50 73.79
  L 80.22 74.20
  C 79.94 74.25 79.78 74.56 79.91 74.82
  C 80.02 75.05 80.19 75.23 80.42 75.37
  C 80.72 75.55 81.10 75.52 81.39 75.31
  L 83.35 73.87
  C 83.64 73.66 83.83 73.38 83.94 73.04
  C 84.01 72.79 84.05 72.55 84.06 72.32"
/>
<path stroke="#b63b05" vector-effect="non-scaling-stroke" d="
  M 84.81 77.73
  C 81.48 77.92 81.05 80.70 77.81 80.94
  C 77.39 80.97 77.26 80.79 77.42 80.40
  C 77.85 79.39 78.37 78.42 78.98 77.49
  C 79.01 77.44 78.99 77.38 78.94 77.36
  L 78.72 77.24
  C 78.57 77.16 78.46 77.20 78.39 77.35
  C 77.44 79.47 76.26 80.97 73.76 81.35
  C 70.84 81.79 67.92 82.66 65.28 80.73
  C 65.07 80.58 64.88 80.55 64.72 80.65
  C 64.50 80.79 64.29 80.78 64.10 80.61
  C 63.68 80.26 63.25 80.12 62.80 80.20"
/>
<path stroke="#e8530d" vector-effect="non-scaling-stroke" d="
  M 59.42 76.89
  C 59.79 75.16 60.32 73.72 61.03 72.56"
/>
<path stroke="#4d1904" vector-effect="non-scaling-stroke" d="
  M 75.17 82.45
  C 73.46 81.68 72.29 81.68 71.66 82.45"
/>
<path stroke="#b63b05" vector-effect="non-scaling-stroke" d="
  M 68.94 83.36
  L 63.29 81.09"
/>
<path stroke="#982a04" vector-effect="non-scaling-stroke" d="
  M 43.16 76.18
  C 38.34 77.53 33.46 78.20 28.51 78.17
  C 27.28 78.16 26.39 78.85 25.54 79.61
  C 25.29 79.82 25.01 79.91 24.69 79.87
  L 22.75 79.63
  C 22.51 79.60 22.26 79.63 22.03 79.71
  C 20.21 80.30 18.36 80.10 16.47 79.09"
/>
<path stroke="#fa8207" vector-effect="non-scaling-stroke" d="
  M 252.16 77.11
  C 252.28 80.10 251.08 82.48 248.55 84.26
  C 248.07 84.60 247.40 84.45 247.10 83.94
  C 246.85 83.52 246.54 83.03 246.16 82.47
  C 246.04 82.30 245.90 82.19 245.75 82.14
  C 245.60 82.09 245.47 82.08 245.34 82.11
  C 245.00 82.18 244.85 82.39 244.90 82.74
  C 244.97 83.29 244.89 83.72 244.66 84.02
  C 244.07 84.79 243.09 85.78 241.74 87.00
  C 241.51 87.21 241.23 87.29 240.92 87.24
  C 238.84 86.95 236.79 87.01 234.78 87.43"
/>
<path stroke="#4d1904" vector-effect="non-scaling-stroke" d="
  M 149.58 80.99
  L 146.76 80.41"
/>
<path stroke="#752605" vector-effect="non-scaling-stroke" d="
  M 146.76 80.41
  C 146.76 81.24 147.34 81.73 148.50 81.86
  C 149.26 81.94 149.68 81.73 149.76 81.23"
/>
<path stroke="#631e03" vector-effect="non-scaling-stroke" d="
  M 115.46 97.02
  C 114.66 98.03 113.31 98.27 111.40 97.76"
/>
<path stroke="#631e03" vector-effect="non-scaling-stroke" d="
  M 115.49 98.93
  C 114.42 99.28 113.34 99.35 112.27 99.12"
/>
<path stroke="#631e03" vector-effect="non-scaling-stroke" d="
  M 116.82 111.41
  C 114.84 112.15 112.67 112.21 110.30 111.59"
/>
<path stroke="#4d1904" vector-effect="non-scaling-stroke" d="
  M 117.15 113.42
  C 115.01 114.33 112.61 114.33 109.96 113.40"
/>
<path stroke="#f9b379" vector-effect="non-scaling-stroke" d="
  M 74.61 108.57
  C 75.14 106.08 74.66 104.19 73.15 102.90
  C 72.55 102.38 71.61 102.72 71.48 103.50
  L 70.78 107.80"
/>
<path stroke="#838a82" vector-effect="non-scaling-stroke" d="
  M 74.49 108.85
  C 73.48 109.31 72.51 109.30 71.56 108.81"
/>
<path stroke="#08474a" vector-effect="non-scaling-stroke" d="
  M 81.05 110.35
  C 80.10 110.57 79.16 110.84 78.25 111.15
  C 75.72 112.03 73.06 111.73 70.47 111.61
  C 68.69 111.52 67.17 110.56 65.24 110.41"
/>
<path stroke="#71500e" vector-effect="non-scaling-stroke" d="
  M 155.50 111.37
  C 153.39 111.93 151.31 112.21 149.25 112.20
  C 148.80 112.19 148.43 112.36 148.15 112.70"
/>
<path stroke="#5d7e1e" vector-effect="non-scaling-stroke" d="
  M 146.83 111.73
  C 147.26 111.54 147.69 111.20 148.11 110.71
  C 148.32 110.46 148.39 110.18 148.31 109.86
  C 147.42 106.25 145.13 103.84 141.43 102.62
  C 141.10 102.51 140.90 102.27 140.85 101.90
  C 140.80 101.55 140.95 101.38 141.30 101.37
  C 141.56 101.37 141.77 101.47 141.93 101.67
  C 142.18 101.98 142.49 102.15 142.88 102.18
  C 144.53 102.32 145.79 103.06 146.67 104.39
  C 146.90 104.74 147.44 104.67 147.57 104.27
  C 147.85 103.42 147.97 102.50 147.92 101.53"
/>
<path stroke="#591b04" vector-effect="non-scaling-stroke" d="
  M 154.24 113.64
  C 152.77 114.39 151.06 114.42 149.09 113.71"
/>
<path stroke="#153c3e" vector-effect="non-scaling-stroke" d="
  M 146.68 118.73
  C 148.68 120.81 151.03 121.39 153.73 120.47
  C 155.10 120.00 155.90 119.06 156.15 117.65
  C 156.42 116.08 155.00 114.74 153.45 115.10
  C 152.07 115.41 150.37 115.26 148.36 114.65"
/>
<path stroke="#8d3b06" vector-effect="non-scaling-stroke" d="
  M 31.05 115.23
  C 29.63 116.22 28.40 116.41 27.36 115.81"
/>
<path stroke="#fba411" vector-effect="non-scaling-stroke" d="
  M 27.36 115.81
  L 30.06 112.57
  C 30.58 111.95 30.59 111.05 30.08 110.42
  L 28.37 108.29
  C 27.86 107.64 27.35 107.65 26.85 108.31
  C 25.54 110.04 24.87 112.21 24.82 114.80"
/>
<path stroke="#c6840e" vector-effect="non-scaling-stroke" d="
  M 27.36 115.81
  C 26.51 115.30 25.66 114.97 24.82 114.80"
/>
<path stroke="#591b04" vector-effect="non-scaling-stroke" d="
  M 27.36 115.81
  L 21.63 116.02
  C 21.38 116.03 21.28 116.16 21.33 116.41
  C 21.36 116.54 21.44 116.62 21.58 116.66
  C 26.01 117.85 30.57 117.85 35.28 116.65
  C 35.36 116.63 35.40 116.58 35.41 116.49
  C 35.41 116.41 35.41 116.33 35.42 116.24
  C 35.43 116.08 35.35 115.99 35.20 115.97
  L 31.39 115.54"
/>
<path stroke="#6d1d03" vector-effect="non-scaling-stroke" d="
  M 23.39 123.15
  C 22.99 122.40 22.47 122.16 21.83 122.43"
/>
<path stroke="#631e03" vector-effect="non-scaling-stroke" d="
  M 205.30 113.61
  C 203.58 113.32 202.41 113.52 201.79 114.22"
/>
<path stroke="#631e03" vector-effect="non-scaling-stroke" d="
  M 203.93 114.00
  L 202.31 114.48"
/>
<path stroke="#88550d" vector-effect="non-scaling-stroke" d="
  M 241.21 139.99
  L 240.94 140.88"
/>
<path stroke="#982a04" vector-effect="non-scaling-stroke" d="
  M 255.86 159.21
  C 246.63 162.64 237.42 162.83 228.24 159.77"
/>
<path stroke="#916113" vector-effect="non-scaling-stroke" d="
  M 241.66 151.36
  C 242.45 150.13 242.38 149.16 241.45 148.45"
/>
<path stroke="#273009" vector-effect="non-scaling-stroke" d="
  M 152.31 152.27
  C 152.02 153.25 151.66 153.92 151.22 154.27
  C 150.91 154.51 150.65 154.47 150.43 154.14
  C 149.85 153.30 149.05 152.96 148.03 153.11"
/>
<path stroke="#9c650c" vector-effect="non-scaling-stroke" d="
  M 148.03 153.11
  C 149.20 153.12 149.72 152.83 149.59 152.23"
/>
<path stroke="#4d1904" vector-effect="non-scaling-stroke" d="
  M 153.69 152.25
  C 154.82 152.79 156.35 152.95 158.28 152.72
  C 159.51 152.58 160.07 154.22 159.01 154.86
  L 157.80 155.59"
/>
<path stroke="#813907" vector-effect="non-scaling-stroke" d="
  M 157.80 155.59
  C 153.23 156.42 149.18 156.36 145.67 155.43
  C 143.68 154.90 143.66 154.29 145.59 153.59
  C 146.01 153.44 146.82 153.28 148.03 153.11"
/>
<path stroke="#c24e07" vector-effect="non-scaling-stroke" d="
  M 143.42 157.96
  L 152.30 160.21
  C 152.99 160.38 153.54 160.18 153.95 159.61
  L 154.44 158.95
  C 154.94 158.27 154.77 157.97 153.92 158.05
  C 153.09 158.12 152.34 157.97 151.65 157.60
  C 151.36 157.45 151.49 157.01 151.81 157.03
  C 154.31 157.16 156.31 156.68 157.80 155.59"
/>
<path stroke="#4b6713" vector-effect="non-scaling-stroke" d="
  M 114.97 138.66
  C 114.78 138.76 114.60 139.22 114.43 140.05"
/>
<path stroke="#684509" vector-effect="non-scaling-stroke" d="
  M 114.01 145.03
  C 113.70 145.17 113.42 145.16 113.18 144.99"
/>
<path stroke="#6d1d03" vector-effect="non-scaling-stroke" d="
  M 118.46 160.70
  L 109.51 160.76"
/>
<path stroke="#c24e07" vector-effect="non-scaling-stroke" d="
  M 108.85 160.34
  C 109.37 159.84 109.69 159.37 109.82 158.94
  C 109.92 158.62 109.82 158.38 109.53 158.23
  L 105.54 156.14
  C 105.24 155.98 105.30 155.55 105.62 155.46
  L 106.26 155.29
  C 106.42 155.25 106.58 155.28 106.71 155.38
  C 109.58 157.65 113.89 156.69 114.54 152.89
  C 114.65 152.26 114.16 151.69 113.53 151.71
  C 111.00 151.78 106.25 152.19 106.02 148.88"
/>
<path stroke="#ed6e05" vector-effect="non-scaling-stroke" d="
  M 202.15 143.76
  C 200.70 145.27 199.24 146.78 197.76 148.31
  C 197.59 148.48 197.36 148.51 197.05 148.42
  C 196.71 148.31 196.62 148.10 196.79 147.79
  C 197.36 146.72 197.40 145.63 196.89 144.52
  C 196.79 144.29 196.48 144.23 196.30 144.42
  L 195.85 144.91
  C 195.76 145.00 195.73 145.13 195.77 145.25
  C 196.38 147.05 196.47 148.74 196.05 150.32"
/>
<path stroke="#90520a" vector-effect="non-scaling-stroke" d="
  M 196.05 150.32
  L 195.85 149.55
  C 195.82 149.43 195.74 149.37 195.61 149.37
  C 195.50 149.37 195.41 149.38 195.34 149.39"
/>
<path stroke="#ed6e05" vector-effect="non-scaling-stroke" d="
  M 195.34 149.39
  L 191.35 144.97"
/>
<path stroke="#9f7809" vector-effect="non-scaling-stroke" d="
  M 195.34 149.39
  C 194.50 153.06 191.16 152.48 188.54 151.53"
/>
<path stroke="#7f4a08" vector-effect="non-scaling-stroke" d="
  M 189.87 156.81
  C 188.04 155.44 186.76 153.84 186.05 152.03"
/>
<path stroke="#b85805" vector-effect="non-scaling-stroke" d="
  M 207.51 143.73
  C 207.67 143.64 207.62 143.55 207.37 143.46
  C 207.20 143.39 207.08 143.44 207.01 143.61
  C 205.46 147.24 205.11 150.87 200.83 152.78"
/>
<path stroke="#ed6e05" vector-effect="non-scaling-stroke" d="
  M 200.83 152.78
  C 200.24 152.76 199.97 152.49 200.01 151.96"
/>
<path stroke="#9f7809" vector-effect="non-scaling-stroke" d="
  M 200.01 151.96
  C 201.28 150.55 202.19 149.16 202.76 147.78
  C 203.06 147.04 202.87 146.87 202.18 147.28
  L 197.06 150.26"
/>
<path stroke="#ed6e05" vector-effect="non-scaling-stroke" d="
  M 197.06 150.26
  C 196.65 152.43 199.28 154.80 196.81 156.68"
/>
<path stroke="#b85805" vector-effect="non-scaling-stroke" d="
  M 196.81 156.68
  C 195.24 157.00 193.89 156.89 192.77 156.35"
/>
<path stroke="#9f7809" vector-effect="non-scaling-stroke" d="
  M 192.77 156.35
  C 192.03 153.77 194.60 152.01 196.05 150.32"
/>
<path stroke="#982a04" vector-effect="non-scaling-stroke" d="
  M 183.80 155.48
  C 186.23 156.69 188.26 157.13 189.87 156.81"
/>
<path stroke="#5b3c0a" vector-effect="non-scaling-stroke" d="
  M 189.87 156.81
  C 191.53 156.96 192.50 156.80 192.77 156.35"
/>
<path stroke="#a93206" vector-effect="non-scaling-stroke" d="
  M 196.81 156.68
  C 198.20 156.96 199.35 156.74 200.25 156.01
  C 200.52 155.79 200.62 155.51 200.55 155.17
  C 200.37 154.35 200.46 153.55 200.83 152.78"
/>
<path stroke="#90520a" vector-effect="non-scaling-stroke" d="
  M 200.01 151.96
  C 198.47 152.17 197.49 151.60 197.06 150.26"
/>
<path stroke="#da5406" stroke-opacity="0.996" vector-effect="non-scaling-stroke" d="
  M 77.80 145.06
  C 78.65 145.95 79.00 146.97 78.87 148.14
  C 78.83 148.47 78.67 148.73 78.40 148.92
  C 77.83 149.31 77.40 149.84 77.13 150.51
  C 76.96 150.92 76.58 151.00 76.01 150.75"
/>
<path stroke="#b54508" vector-effect="non-scaling-stroke" d="
  M 76.01 150.75
  C 75.12 150.04 74.45 149.23 73.99 148.32
  C 73.85 148.03 73.94 147.68 74.20 147.50
  C 75.19 146.81 75.82 145.88 76.11 144.72
  C 76.21 144.32 75.98 143.92 75.60 143.79
  C 69.73 141.82 68.27 143.08 71.22 147.57"
/>
<path stroke="#fa8207" vector-effect="non-scaling-stroke" d="
  M 71.22 147.57
  C 70.43 146.52 69.49 146.41 68.42 147.23"
/>
<path stroke="#f56710" stroke-opacity="0.996" vector-effect="non-scaling-stroke" d="
  M 68.42 147.23
  C 68.22 146.88 68.00 146.79 67.76 146.97"
/>
<path stroke="#fa8207" vector-effect="non-scaling-stroke" d="
  M 67.76 146.97
  C 68.69 145.88 68.66 145.15 67.67 144.79"
/>
<path stroke="#982a04" vector-effect="non-scaling-stroke" d="
  M 76.01 150.75
  C 77.20 152.46 77.12 153.75 75.77 154.61
  C 75.40 154.85 75.28 154.76 75.41 154.33
  C 75.58 153.81 76.05 153.35 76.06 152.83
  C 76.06 152.47 75.90 152.20 75.59 152.03"
/>
<path stroke="#b33d0d" vector-effect="non-scaling-stroke" d="
  M 75.59 152.03
  L 71.69 147.73"
/>
<path stroke="#b85805" vector-effect="non-scaling-stroke" d="
  M 71.69 147.73
  C 71.53 147.68 71.37 147.62 71.22 147.57"
/>
<path stroke="#f77a0c" vector-effect="non-scaling-stroke" d="
  M 65.23 144.73
  L 64.35 148.71
  C 64.22 149.28 64.33 149.87 64.65 150.36
  L 65.22 151.24
  C 65.40 151.52 65.83 151.41 65.86 151.08
  C 65.97 149.45 66.61 148.08 67.76 146.97"
/>
<path stroke="#f77a0c" vector-effect="non-scaling-stroke" d="
  M 68.42 147.23
  C 67.57 148.40 67.15 149.53 67.18 150.63
  C 67.19 150.99 67.46 151.29 67.82 151.34
  L 70.41 151.69
  C 70.70 151.73 70.99 151.64 71.21 151.45
  C 72.56 150.30 72.72 149.06 71.69 147.73"
/>
<path stroke="#9f350b" vector-effect="non-scaling-stroke" d="
  M 73.21 155.29
  L 64.22 153.69"
/>
<path stroke="#b33d0d" vector-effect="non-scaling-stroke" d="
  M 62.83 153.05
  C 62.48 151.70 61.70 150.71 60.47 150.09"
/>
<path stroke="#842102" vector-effect="non-scaling-stroke" d="
  M 82.95 152.83
  C 79.84 154.80 77.26 157.06 73.21 155.29"
/>
<path stroke="#d74c0c" stroke-opacity="0.996" vector-effect="non-scaling-stroke" d="
  M 73.21 155.29
  C 74.78 154.85 75.58 153.76 75.59 152.03"
/>
<path stroke="#601404" vector-effect="non-scaling-stroke" d="
  M 63.98 158.73
  L 62.67 156.60
  C 62.50 156.33 62.40 156.03 62.37 155.71
  C 62.30 155.06 61.83 154.71 60.96 154.67"
/>
<path stroke="#982a04" vector-effect="non-scaling-stroke" d="
  M 32.83 149.30
  C 32.70 149.61 32.47 149.79 32.12 149.85"
/>
<path stroke="#dd890d" vector-effect="non-scaling-stroke" d="
  M 32.12 149.85
  C 31.95 147.54 31.24 145.31 30.01 143.15
  C 29.80 142.79 29.54 142.74 29.23 143.01
  C 28.86 143.33 28.65 143.74 28.62 144.23
  C 28.60 144.48 28.50 144.71 28.34 144.89
  C 27.47 145.88 27.15 147.00 27.38 148.24
  C 27.59 149.33 28.19 149.74 29.18 149.49
  C 29.49 149.41 29.77 149.46 30.03 149.65
  C 30.59 150.04 31.17 150.17 31.76 150.03"
/>
<path stroke="#982a04" vector-effect="non-scaling-stroke" d="
  M 31.76 150.03
  C 31.31 150.56 30.99 151.14 30.79 151.77
  C 30.66 152.16 30.80 152.35 31.21 152.35
  C 33.84 152.32 36.44 152.58 39.00 153.15
  C 39.41 153.24 39.73 153.24 39.96 153.15
  C 40.32 153.01 40.56 152.73 40.69 152.32
  C 40.79 152.01 40.63 151.68 40.34 151.56
  L 36.65 150.04"
/>
<path stroke="#842102" vector-effect="non-scaling-stroke" d="
  M 42.62 153.31
  C 40.29 154.50 38.06 155.14 35.93 155.22
  C 35.77 155.23 35.64 155.29 35.55 155.42
  C 35.48 155.51 35.38 155.57 35.24 155.58
  C 30.51 156.20 25.81 156.28 21.14 155.83
  C 20.72 155.79 20.36 156.14 20.39 156.57
  C 20.47 157.87 20.18 158.79 19.52 159.32"
/>
<path stroke="#b97b0f" vector-effect="non-scaling-stroke" d="
  M 32.12 149.85
  C 32.00 149.91 31.88 149.97 31.76 150.03"
/>
</g>
<g fill="#8e2e04">
<path d="
  M 27.04 15.35
  C 26.99 14.30 27.47 13.48 28.46 12.89
  C 28.72 12.74 28.97 12.76 29.20 12.95
  C 30.07 13.69 30.44 14.62 30.31 15.73
  C 30.28 16.04 30.31 16.35 30.42 16.65
  C 30.79 17.70 31.02 18.75 31.09 19.80
  C 31.23 22.02 29.55 23.29 30.47 26.00
  C 30.70 26.70 30.64 27.15 30.39 27.78
  C 30.36 27.86 30.34 27.94 30.35 28.03
  L 31.11 40.11
  C 31.14 40.51 31.28 40.86 31.55 41.15
  C 32.18 41.85 32.40 42.68 32.21 43.64
  C 32.14 43.98 32.26 44.33 32.51 44.56
  L 34.16 46.03
  C 34.99 46.77 34.73 48.13 33.69 48.52
  C 30.22 49.81 26.75 49.86 23.26 48.67
  C 22.07 48.27 21.75 46.74 22.68 45.89
  L 24.28 44.43
  C 24.55 44.19 24.68 43.82 24.62 43.46
  C 24.46 42.49 24.72 41.68 25.39 41.02
  C 25.67 40.75 25.82 40.43 25.85 40.04
  C 26.10 36.99 26.31 33.95 26.50 30.93
  C 26.57 29.78 27.26 28.62 26.63 27.16
  C 26.50 26.86 26.51 26.51 26.66 26.21
  C 27.51 24.58 27.38 23.04 26.29 21.59
  C 26.02 21.24 25.94 20.84 26.04 20.41
  L 26.96 16.34
  C 27.03 16.01 27.06 15.68 27.04 15.35
  Z"
/>
<path d="
  M 113.89 28.77
  C 113.15 27.96 112.38 27.90 111.57 28.61
  C 110.96 29.15 111.03 29.58 111.78 29.90
  C 112.81 30.34 113.58 30.12 114.11 29.24
  L 113.96 35.16
  C 111.71 35.44 110.61 35.08 110.67 34.08
  L 110.49 27.57
  C 110.48 27.26 110.58 26.98 110.77 26.73
  C 111.82 25.42 110.90 21.88 110.23 20.25
  C 110.10 19.92 110.16 19.63 110.43 19.40
  C 110.98 18.92 111.04 18.42 110.62 17.90
  C 110.40 17.62 110.44 17.22 110.71 16.99
  C 111.36 16.45 111.47 15.78 111.02 14.97
  C 110.87 14.68 110.91 14.32 111.14 14.09
  C 111.45 13.78 111.69 13.41 111.85 13.00
  C 111.96 12.70 112.15 12.64 112.42 12.82
  C 113.35 13.45 113.65 14.30 113.33 15.37
  C 113.21 15.78 113.30 16.13 113.59 16.43
  C 114.11 16.94 114.22 17.56 113.92 18.29
  C 113.80 18.59 113.89 18.94 114.15 19.14
  C 114.33 19.28 114.44 19.46 114.49 19.69
  C 114.58 20.02 114.56 20.35 114.43 20.68
  C 113.87 22.18 113.59 23.74 113.58 25.35
  C 113.58 25.65 113.66 25.93 113.82 26.18
  C 114.29 26.95 114.31 27.82 113.89 28.77
  Z"
/>
<path d="
  M 201.01 30.38
  C 206.12 31.93 206.51 34.70 202.16 38.69
  C 201.19 39.58 201.37 40.05 202.68 40.09
  C 204.53 40.16 206.28 40.25 207.93 40.36
  C 208.50 40.40 208.90 40.71 209.13 41.30
  C 206.71 42.09 204.17 42.37 201.50 42.13
  C 201.11 42.10 200.91 42.28 200.91 42.67
  L 200.90 44.95
  C 198.89 45.11 196.18 45.49 192.76 46.08
  C 191.59 46.29 190.65 45.96 189.96 45.09
  C 189.76 44.83 189.50 44.66 189.19 44.57
  L 186.25 43.74
  C 186.56 43.19 186.36 42.43 185.64 41.45
  L 192.88 40.01
  C 193.25 39.94 193.36 39.46 193.06 39.23
  C 190.83 37.58 189.77 35.33 189.88 32.50
  C 189.89 32.14 190.07 31.89 190.41 31.75
  C 190.97 31.52 191.59 31.40 192.27 31.41
  C 192.17 31.68 192.13 31.94 192.14 32.18
  C 192.15 32.52 192.33 32.72 192.66 32.78
  C 196.77 33.52 197.80 33.05 195.74 31.37
  C 198.15 32.12 199.91 31.79 201.01 30.38
  Z"
/>
<path d="
  M 153.18 32.93
  C 155.98 33.74 158.81 32.71 161.79 32.94
  C 161.72 33.23 161.71 33.48 161.78 33.68
  C 161.88 33.97 162.19 34.12 162.48 34.02
  C 164.11 33.45 165.80 33.30 167.54 33.55
  C 167.85 33.60 167.99 33.78 167.94 34.10
  C 167.23 38.98 161.25 42.45 157.24 44.37
  C 156.77 44.60 156.78 44.81 157.25 45.02
  L 157.74 45.24
  C 158.66 45.65 158.47 47.01 157.47 47.16
  C 154.43 47.60 148.18 48.29 145.62 46.59
  C 145.28 46.36 145.18 45.91 145.39 45.57
  C 145.60 45.23 145.88 45.02 146.24 44.94
  C 147.06 44.75 147.07 44.48 146.26 44.14
  C 142.34 42.47 136.99 38.59 136.01 34.86
  C 135.83 34.17 136.09 33.75 136.78 33.60
  C 137.92 33.34 139.05 33.34 140.16 33.60
  C 140.49 33.67 140.70 33.54 140.78 33.21
  C 141.12 31.82 141.78 31.35 142.76 31.82
  C 144.10 33.23 146.46 33.46 149.85 32.53
  C 149.96 32.72 150.12 32.84 150.33 32.89
  C 150.70 32.99 150.96 32.86 151.11 32.51
  L 151.56 31.51
  C 151.67 31.25 152.04 31.25 152.15 31.51
  C 152.43 32.18 152.77 32.66 153.18 32.93
  Z
  M 166.56 35.23
  C 166.76 34.88 166.51 34.44 166.11 34.43
  L 164.26 34.35
  C 163.92 34.34 163.66 34.63 163.70 34.96
  L 164.05 37.65
  C 164.12 38.16 164.80 38.30 165.06 37.85
  L 166.56 35.23
  Z
  M 139.63 34.18
  L 137.65 34.67
  C 137.50 34.71 137.41 34.85 137.45 35.00
  L 137.49 35.15
  C 137.94 36.99 138.86 38.35 139.54 38.18
  L 139.58 38.17
  C 140.26 38.00 140.45 36.37 139.99 34.53
  L 139.95 34.38
  C 139.92 34.23 139.77 34.15 139.63 34.18
  Z"
/>
<path d="
  M 246.07 35.44
  C 247.66 35.97 249.39 36.05 251.26 35.68
  C 251.44 36.08 251.57 36.27 251.66 36.24
  C 251.07 36.85 250.39 37.17 249.63 37.19
  C 246.52 36.83 244.02 36.86 240.30 36.56
  C 238.45 36.41 236.65 36.77 234.90 37.63
  C 234.18 37.65 233.24 37.20 232.09 36.29
  L 232.68 35.46
  L 237.50 35.72
  C 239.57 36.60 242.02 36.63 244.83 35.80
  C 245.02 35.77 245.06 35.70 244.96 35.57
  L 246.07 35.44
  Z"
/>
<path d="
  M 107.73 42.94
  C 107.80 42.99 107.88 43.03 107.96 43.08
  C 108.02 43.11 108.07 43.10 108.10 43.05
  C 109.77 40.33 112.13 39.73 115.18 41.25
  C 115.42 41.37 115.58 41.56 115.66 41.82
  L 116.77 45.31
  C 117.26 46.85 116.04 48.39 114.43 48.27
  L 109.44 47.89
  C 108.34 47.81 107.51 46.86 107.57 45.76
  L 107.73 42.94
  Z"
/>
<path d="
  M 83.22 71.78
  L 84.06 72.32
  C 84.05 72.55 84.01 72.79 83.94 73.04
  C 83.83 73.38 83.64 73.66 83.35 73.87
  L 81.39 75.31
  C 81.10 75.52 80.72 75.55 80.42 75.37
  C 80.19 75.23 80.02 75.05 79.91 74.82
  C 79.78 74.56 79.94 74.25 80.22 74.20
  L 82.50 73.79
  C 82.88 73.72 83.09 73.49 83.12 73.10
  L 83.22 71.78
  Z"
/>
<path d="
  M 84.81 77.73
  L 82.18 80.30
  C 81.96 80.51 81.98 80.86 82.22 81.04
  L 82.84 81.51
  C 83.15 81.74 83.13 81.96 82.80 82.16
  L 78.18 84.94
  C 77.89 85.12 77.58 85.15 77.27 85.02
  C 76.10 84.56 75.40 83.70 75.17 82.45
  C 73.46 81.68 72.29 81.68 71.66 82.45
  C 70.55 82.58 69.64 82.89 68.94 83.36
  L 63.29 81.09
  C 63.26 80.84 63.10 80.54 62.80 80.20
  C 63.25 80.12 63.68 80.26 64.10 80.61
  C 64.29 80.78 64.50 80.79 64.72 80.65
  C 64.88 80.55 65.07 80.58 65.28 80.73
  C 67.92 82.66 70.84 81.79 73.76 81.35
  C 76.26 80.97 77.44 79.47 78.39 77.35
  C 78.46 77.20 78.57 77.16 78.72 77.24
  L 78.94 77.36
  C 78.99 77.38 79.01 77.44 78.98 77.49
  C 78.37 78.42 77.85 79.39 77.42 80.40
  C 77.26 80.79 77.39 80.97 77.81 80.94
  C 81.05 80.70 81.48 77.92 84.81 77.73
  Z"
/>
<path d="
  M 149.58 80.99
  L 146.76 80.41
  C 147.78 79.85 148.72 80.04 149.58 80.99
  Z"
/>
<path d="
  M 243.18 118.90
  L 243.75 119.20
  C 244.06 119.37 244.09 119.57 243.82 119.81
  L 242.30 121.17
  C 242.03 121.41 241.63 121.42 241.35 121.20
  L 239.60 119.79
  C 239.35 119.59 239.40 119.20 239.68 119.06
  L 240.09 118.86
  C 240.48 118.67 240.51 118.43 240.18 118.14
  C 240.12 118.09 240.06 118.03 239.99 117.98
  C 239.89 117.92 239.85 117.83 239.86 117.71
  L 240.47 108.63
  C 240.49 108.28 240.40 107.97 240.19 107.69
  C 239.58 106.90 239.59 106.11 240.22 105.34
  C 240.37 105.16 240.22 104.89 239.99 104.92
  C 238.47 105.09 236.94 105.20 235.40 105.26
  C 233.62 105.33 231.99 106.14 232.67 108.16
  C 232.92 108.89 232.18 109.57 231.47 109.26
  C 229.56 108.42 228.06 107.10 226.97 105.30
  C 226.80 105.01 226.86 104.65 227.12 104.44
  L 230.02 102.12
  C 230.35 101.85 230.67 101.86 230.99 102.14
  L 232.54 103.53
  C 232.73 103.71 232.98 103.81 233.24 103.84
  L 239.18 104.45
  C 239.75 104.51 239.98 104.26 239.87 103.70
  L 239.68 102.74
  C 239.63 102.45 239.77 102.15 240.03 102.01
  L 241.43 101.27
  C 241.78 101.08 242.13 101.09 242.47 101.29
  C 243.43 101.84 243.84 102.62 243.71 103.65
  C 243.66 104.00 243.82 104.20 244.18 104.24
  C 246.13 104.43 248.06 104.29 249.96 103.82
  C 250.26 103.75 250.50 103.58 250.68 103.32
  L 251.07 102.74
  C 251.31 102.38 251.60 102.34 251.94 102.61
  L 254.56 104.77
  C 254.82 104.98 254.83 105.20 254.59 105.43
  L 252.04 107.93
  C 251.85 108.12 251.65 108.12 251.44 107.95
  C 251.16 107.72 250.93 107.43 250.74 107.09
  C 250.57 106.78 250.33 106.56 250.01 106.41
  C 248.00 105.48 245.89 105.06 243.67 105.13
  C 243.34 105.14 243.18 105.31 243.19 105.64
  L 243.43 117.71
  C 243.44 117.84 243.38 117.97 243.28 118.07
  L 243.10 118.24
  C 242.82 118.50 242.85 118.72 243.18 118.90
  Z"
/>
<path d="
  M 155.50 111.37
  C 155.65 112.42 155.23 113.18 154.24 113.64
  C 152.77 114.39 151.06 114.42 149.09 113.71
  L 148.15 112.70
  C 148.43 112.36 148.80 112.19 149.25 112.20
  C 151.31 112.21 153.39 111.93 155.50 111.37
  Z"
/>
<path d="
  M 109.96 113.40
  C 112.61 114.33 115.01 114.33 117.15 113.42
  C 117.79 115.69 120.22 120.99 118.46 122.77
  C 116.40 124.85 112.06 125.07 109.60 123.90
  C 107.99 123.14 107.21 121.29 107.80 119.61
  L 109.96 113.40
  Z"
/>
<path d="
  M 24.82 114.80
  C 25.66 114.97 26.51 115.30 27.36 115.81
  L 21.63 116.02
  C 21.38 116.03 21.28 116.16 21.33 116.41
  C 21.36 116.54 21.44 116.62 21.58 116.66
  C 26.01 117.85 30.57 117.85 35.28 116.65
  C 35.36 116.63 35.40 116.58 35.41 116.49
  C 35.41 116.41 35.41 116.33 35.42 116.24
  C 35.43 116.08 35.35 115.99 35.20 115.97
  L 31.39 115.54
  C 33.43 115.18 35.14 115.31 36.53 115.93
  C 36.96 116.12 37.23 116.54 37.24 117.01
  C 37.29 121.01 35.61 122.70 31.75 124.76
  C 30.10 125.64 26.68 125.75 24.96 124.38
  C 24.43 123.95 23.90 123.54 23.39 123.15
  C 22.99 122.40 22.47 122.16 21.83 122.43
  C 20.54 121.18 19.81 119.47 19.63 117.32
  C 19.57 116.51 20.12 115.79 20.91 115.62
  L 24.82 114.80
  Z"
/>
<path d="
  M 113.18 144.99
  C 113.42 145.16 113.70 145.17 114.01 145.03
  L 114.06 147.30
  C 114.07 147.69 114.26 147.89 114.64 147.92
  C 117.24 148.12 122.79 147.70 123.32 151.02
  C 124.03 155.46 122.41 158.69 118.46 160.70
  L 109.51 160.76
  C 109.20 160.45 108.98 160.31 108.85 160.34
  C 109.37 159.84 109.69 159.37 109.82 158.94
  C 109.92 158.62 109.82 158.38 109.53 158.23
  L 105.54 156.14
  C 105.24 155.98 105.30 155.55 105.62 155.46
  L 106.26 155.29
  C 106.42 155.25 106.58 155.28 106.71 155.38
  C 109.58 157.65 113.89 156.69 114.54 152.89
  C 114.65 152.26 114.16 151.69 113.53 151.71
  C 111.00 151.78 106.25 152.19 106.02 148.88
  L 112.30 147.97
  C 112.60 147.92 112.83 147.68 112.87 147.38
  L 113.18 144.99
  Z"
/>
<path d="
  M 153.69 152.25
  C 157.44 151.96 160.73 152.86 163.58 154.94
  C 164.10 155.32 164.17 156.06 163.74 156.53
  L 162.42 157.97
  C 162.16 158.25 162.01 158.58 161.97 158.95
  C 161.78 160.97 159.83 161.46 158.38 162.24
  C 158.07 162.41 157.87 162.66 157.78 163.00
  C 156.91 166.26 147.93 166.28 147.10 163.02
  C 147.02 162.73 146.83 162.47 146.56 162.32
  C 144.65 161.28 142.89 160.68 143.42 157.96
  L 152.30 160.21
  C 152.99 160.38 153.54 160.18 153.95 159.61
  L 154.44 158.95
  C 154.94 158.27 154.77 157.97 153.92 158.05
  C 153.09 158.12 152.34 157.97 151.65 157.60
  C 151.36 157.45 151.49 157.01 151.81 157.03
  C 154.31 157.16 156.31 156.68 157.80 155.59
  L 159.01 154.86
  C 160.07 154.22 159.51 152.58 158.28 152.72
  C 156.35 152.95 154.82 152.79 153.69 152.25
  Z"
/>
</g>
<g fill="#547218">
<path d="
  M 198.96 71.36
  C 199.06 70.74 199.40 70.23 199.99 69.83
  C 203.20 63.87 201.00 60.50 210.11 60.42
  C 210.38 60.42 210.51 60.55 210.48 60.82
  C 209.96 65.44 209.47 67.75 205.73 70.50
  C 204.48 71.42 203.34 71.58 202.30 70.98
  C 201.94 70.78 201.69 70.87 201.56 71.25
  L 201.30 72.00
  C 201.17 72.36 200.92 72.51 200.54 72.46
  C 199.86 72.36 199.33 71.99 198.96 71.36
  Z"
/>
<path d="
  M 193.47 71.61
  C 193.15 72.93 192.61 73.97 191.85 74.73
  C 186.21 74.41 186.74 69.38 188.53 65.76
  C 188.66 65.48 188.87 65.41 189.15 65.54
  C 191.90 66.80 193.34 68.82 193.47 71.61
  Z"
/>
<path d="
  M 188.27 79.85
  C 185.61 80.45 183.60 76.40 183.30 74.37
  C 183.24 73.99 183.60 73.67 183.98 73.77
  L 189.18 75.19
  C 189.54 75.29 189.81 75.58 189.87 75.94
  C 190.13 77.33 189.95 79.48 188.27 79.85
  Z"
/>
<path d="
  M 196.26 79.57
  C 196.56 79.73 196.77 79.58 196.88 79.12
  L 200.53 81.37
  C 200.60 81.41 200.66 81.40 200.71 81.34
  L 200.89 81.13
  C 200.96 81.04 200.96 80.96 200.88 80.87
  C 200.07 79.99 199.10 79.36 197.97 78.99
  C 197.56 78.86 197.44 78.59 197.63 78.19
  L 198.61 76.09
  C 198.98 75.30 200.07 75.21 200.56 75.93
  L 201.07 76.68
  C 201.31 77.03 201.60 77.09 201.95 76.84
  C 204.44 75.09 207.23 74.10 210.30 73.87
  C 210.93 73.82 210.97 73.94 210.40 74.22
  C 207.60 75.57 206.81 78.61 203.47 80.08
  C 203.14 80.23 203.12 80.39 203.43 80.57
  L 205.88 82.07
  C 206.29 82.32 206.29 82.56 205.86 82.79
  C 204.85 83.33 203.77 83.66 202.62 83.77
  C 202.29 83.80 202.05 83.67 201.89 83.38
  L 201.45 82.57
  C 201.06 81.84 200.87 81.88 200.88 82.71
  L 200.89 83.74
  C 200.89 84.12 200.71 84.25 200.35 84.12
  C 198.45 83.45 194.66 82.62 196.26 79.57
  Z"
/>
<path d="
  M 155.50 111.37
  C 153.39 111.93 151.31 112.21 149.25 112.20
  C 148.80 112.19 148.43 112.36 148.15 112.70
  C 147.59 112.43 147.15 112.11 146.83 111.73
  C 147.26 111.54 147.69 111.20 148.11 110.71
  C 148.32 110.46 148.39 110.18 148.31 109.86
  C 147.42 106.25 145.13 103.84 141.43 102.62
  C 141.10 102.51 140.90 102.27 140.85 101.90
  C 140.80 101.55 140.95 101.38 141.30 101.37
  C 141.56 101.37 141.77 101.47 141.93 101.67
  C 142.18 101.98 142.49 102.15 142.88 102.18
  C 144.53 102.32 145.79 103.06 146.67 104.39
  C 146.90 104.74 147.44 104.67 147.57 104.27
  C 147.85 103.42 147.97 102.50 147.92 101.53
  C 148.91 99.48 150.18 97.67 151.75 96.11
  C 152.05 95.81 152.29 95.86 152.47 96.25
  L 154.13 99.89
  C 154.31 100.28 154.58 100.35 154.94 100.12
  C 158.96 97.50 161.97 98.16 166.28 98.21
  C 166.62 98.21 166.74 98.37 166.64 98.70
  C 164.75 104.85 162.12 109.72 155.50 111.37
  Z"
/>
<path d="
  M 241.21 139.99
  L 240.94 140.88
  C 234.26 143.98 232.28 137.90 227.28 135.18
  C 226.98 135.01 226.98 134.84 227.27 134.66
  C 229.66 133.20 232.22 132.71 234.95 133.19
  C 235.29 133.25 235.49 133.11 235.54 132.77
  C 235.91 130.39 237.18 128.67 239.37 127.61
  C 239.78 127.41 240.01 127.54 240.04 128.00
  L 240.08 128.63
  C 240.10 129.02 240.23 129.37 240.46 129.68
  L 243.95 134.46
  C 244.49 135.20 244.50 136.20 243.96 136.95
  C 243.40 137.72 242.58 138.43 241.49 139.10
  C 241.31 139.21 241.20 139.33 241.16 139.47
  C 241.09 139.66 241.11 139.84 241.21 139.99
  Z"
/>
<path d="
  M 114.97 138.66
  C 114.78 138.76 114.60 139.22 114.43 140.05
  C 114.09 138.02 113.00 136.54 111.17 135.61
  C 111.04 135.54 111.00 135.37 111.09 135.25
  L 111.25 135.03
  C 111.27 135.00 111.29 135.00 111.32 135.01
  C 111.67 135.16 112.03 135.26 112.40 135.31
  C 112.79 135.36 113.00 135.18 113.01 134.79
  L 113.07 133.45
  C 113.12 132.26 113.49 132.14 114.20 133.10
  L 115.44 134.79
  C 115.61 135.01 115.82 135.09 116.09 135.04
  C 116.21 135.01 116.33 135.02 116.44 135.07
  C 116.69 135.17 116.82 135.44 116.75 135.69
  C 116.44 136.82 115.84 137.81 114.97 138.66
  Z"
/>
<path d="
  M 235.46 145.53
  C 235.46 145.62 235.46 145.71 235.45 145.80
  C 235.43 146.11 235.28 146.22 234.99 146.14
  C 234.47 146.00 234.02 145.74 233.64 145.37
  C 233.37 145.11 233.42 144.67 233.74 144.47
  C 234.88 143.74 236.13 143.53 237.50 143.84
  C 238.03 143.96 238.03 144.10 237.51 144.26
  C 236.80 144.48 236.15 144.83 235.55 145.32
  C 235.49 145.37 235.46 145.44 235.46 145.53
  Z"
/>
</g>
<g fill="#f76f0a" fill-opacity="0.996">
<path d="
  M 201.01 30.38
  C 199.91 31.79 198.15 32.12 195.74 31.37
  C 195.73 31.26 195.72 31.16 195.71 31.06
  C 197.12 31.13 198.01 29.57 199.33 30.21
  C 199.78 30.42 200.27 30.02 200.15 29.54
  C 199.74 27.89 198.84 26.56 197.45 25.56
  C 197.04 25.27 196.48 25.34 196.15 25.71
  C 195.08 26.90 194.55 28.34 194.56 30.01
  C 190.12 27.30 195.73 21.50 198.52 18.60
  C 198.85 18.26 198.99 18.33 198.96 18.80
  L 198.87 20.22
  C 198.85 20.53 198.91 20.83 199.04 21.12
  C 200.36 23.96 202.95 27.17 201.01 30.38
  Z"
/>
<path d="
  M 255.93 34.40
  C 254.49 39.64 248.28 41.79 243.57 42.34
  L 242.72 41.49
  C 242.55 40.89 242.28 40.42 241.89 40.07
  C 241.60 39.82 241.35 39.85 241.14 40.17
  C 240.85 40.60 240.63 41.13 240.49 41.76
  C 240.07 42.01 239.68 42.14 239.31 42.13
  C 235.84 41.51 225.96 38.50 227.64 33.79
  C 227.83 33.08 228.22 32.51 228.81 32.10
  C 229.87 31.69 230.93 31.52 231.98 31.59
  L 230.00 32.91
  C 229.74 33.09 229.59 33.40 229.62 33.72
  C 229.74 34.91 230.56 35.76 232.09 36.29
  C 233.24 37.20 234.18 37.65 234.90 37.63
  C 240.07 39.08 244.98 38.94 249.63 37.19
  C 250.39 37.17 251.07 36.85 251.66 36.24
  C 253.09 35.62 253.86 34.81 253.97 33.81
  C 254.01 33.44 253.87 33.17 253.55 32.99
  L 250.97 31.54
  C 252.43 31.49 253.64 31.77 254.61 32.36
  C 254.88 32.52 255.14 32.50 255.38 32.31
  C 255.98 31.84 256.56 31.53 257.12 31.39
  C 257.39 31.33 257.62 31.39 257.80 31.57
  C 257.97 31.74 257.94 31.83 257.69 31.83
  C 256.17 31.80 255.62 32.95 255.93 34.40
  Z"
/>
<path d="
  M 64.74 34.20
  C 64.63 34.55 64.04 34.77 62.98 34.86
  C 62.30 34.79 61.91 34.84 61.81 34.99
  C 61.37 35.65 61.82 36.54 62.60 36.55
  L 77.09 36.72
  C 77.94 37.80 77.33 38.42 75.24 38.59
  C 69.92 39.00 64.30 39.15 59.21 37.26
  C 58.66 35.96 58.88 35.16 59.87 34.87
  C 60.82 34.60 62.45 34.37 64.74 34.20
  Z"
/>
<path d="
  M 144.6832 68.3406
  C 144.32 68.59 143.53 68.08 142.9307 67.2031
  C 142.33 66.32 142.13 65.41 142.4968 65.1594
  C 142.86 64.91 143.65 65.42 144.2493 66.2969
  C 144.85 67.18 145.05 68.09 144.6832 68.3406
  Z"
/>
<path d="
  M 234.78 87.43
  C 236.79 87.01 238.84 86.95 240.92 87.24
  C 241.23 87.29 241.51 87.21 241.74 87.00
  C 243.09 85.78 244.07 84.79 244.66 84.02
  C 244.89 83.72 244.97 83.29 244.90 82.74
  C 244.85 82.39 245.00 82.18 245.34 82.11
  C 245.47 82.08 245.60 82.09 245.75 82.14
  C 245.90 82.19 246.04 82.30 246.16 82.47
  C 246.54 83.03 246.85 83.52 247.10 83.94
  C 247.40 84.45 248.07 84.60 248.55 84.26
  C 251.08 82.48 252.28 80.10 252.16 77.11
  C 253.38 76.88 254.23 76.39 254.72 75.62
  C 255.97 73.66 256.54 73.90 256.45 76.33
  C 256.00 87.87 244.15 88.68 234.78 87.43
  Z"
/>
<path d="
  M 74.61 108.57
  C 75.14 106.08 74.66 104.19 73.15 102.90
  C 72.55 102.38 71.61 102.72 71.48 103.50
  L 70.78 107.80
  C 69.93 107.34 69.29 106.72 68.84 105.93
  C 68.68 105.65 68.63 105.33 68.71 105.02
  L 69.03 103.73
  C 69.10 103.41 69.02 103.14 68.78 102.92
  L 68.23 102.44
  C 68.01 102.24 68.14 101.87 68.44 101.87
  C 69.02 101.86 69.47 101.67 69.79 101.31
  C 71.28 99.64 72.22 97.92 72.63 96.14
  C 72.82 95.31 73.06 95.30 73.34 96.10
  C 74.14 98.40 75.17 100.62 76.42 102.77
  C 77.97 105.42 77.46 107.47 74.61 108.57
  Z"
/>
<path d="
  M 31.05 115.23
  C 29.63 116.22 28.40 116.41 27.36 115.81
  L 30.06 112.57
  C 30.58 111.95 30.59 111.05 30.08 110.42
  L 28.37 108.29
  C 27.86 107.64 27.35 107.65 26.85 108.31
  C 25.54 110.04 24.87 112.21 24.82 114.80
  C 22.93 113.35 22.26 111.65 22.81 109.69
  C 22.90 109.36 22.86 109.06 22.67 108.79
  C 22.32 108.28 22.17 107.72 22.22 107.09
  C 22.24 106.77 22.67 106.68 22.81 106.97
  L 23.07 107.51
  C 23.28 107.96 23.52 107.97 23.77 107.54
  C 25.49 104.70 29.36 100.40 28.83 97.08
  C 28.76 96.61 28.91 96.53 29.28 96.82
  L 30.01 97.39
  C 30.11 97.47 30.18 97.58 30.19 97.70
  C 30.67 101.65 29.95 104.06 33.61 107.40
  C 37.00 110.50 33.08 113.08 31.05 115.23
  Z"
/>
<path d="
  M 77.80 145.06
  C 78.65 145.95 79.00 146.97 78.87 148.14
  C 78.83 148.47 78.67 148.73 78.40 148.92
  C 77.83 149.31 77.40 149.84 77.13 150.51
  C 76.96 150.92 76.58 151.00 76.01 150.75
  C 75.12 150.04 74.45 149.23 73.99 148.32
  C 73.85 148.03 73.94 147.68 74.20 147.50
  C 75.19 146.81 75.82 145.88 76.11 144.72
  C 76.21 144.32 75.98 143.92 75.60 143.79
  C 69.73 141.82 68.27 143.08 71.22 147.57
  C 70.43 146.52 69.49 146.41 68.42 147.23
  C 68.22 146.88 68.00 146.79 67.76 146.97
  C 68.69 145.88 68.66 145.15 67.67 144.79
  C 69.48 143.57 70.98 142.15 72.15 140.53
  C 72.32 140.29 72.54 140.25 72.79 140.42
  C 74.71 141.69 76.38 143.24 77.80 145.06
  Z"
/>
<path d="
  M 106.02 148.88
  C 106.25 152.19 111.00 151.78 113.53 151.71
  C 114.16 151.69 114.65 152.26 114.54 152.89
  C 113.89 156.69 109.58 157.65 106.71 155.38
  C 106.58 155.28 106.42 155.25 106.26 155.29
  L 105.62 155.46
  C 105.30 155.55 105.24 155.98 105.54 156.14
  L 109.53 158.23
  C 109.82 158.38 109.92 158.62 109.82 158.94
  C 109.69 159.37 109.37 159.84 108.85 160.34
  C 104.54 158.40 102.80 155.22 103.62 150.81
  C 103.89 149.36 104.70 149.10 106.02 148.88
  Z"
/>
<path d="
  M 149.59 152.23
  C 149.72 152.83 149.20 153.12 148.03 153.11
  C 146.82 153.28 146.01 153.44 145.59 153.59
  C 143.66 154.29 143.68 154.90 145.67 155.43
  C 149.18 156.36 153.23 156.42 157.80 155.59
  C 156.31 156.68 154.31 157.16 151.81 157.03
  C 151.49 157.01 151.36 157.45 151.65 157.60
  C 152.34 157.97 153.09 158.12 153.92 158.05
  C 154.77 157.97 154.94 158.27 154.44 158.95
  L 153.95 159.61
  C 153.54 160.18 152.99 160.38 152.30 160.21
  L 143.42 157.96
  L 142.06 156.94
  C 140.96 156.11 141.17 154.41 142.44 153.88
  C 144.71 152.94 147.10 152.39 149.59 152.23
  Z"
/>
</g>
<g fill="#067078">
<path d="
  M 112.05 71.01
  C 112.16 72.14 112.96 72.64 114.47 72.52
  L 110.19 76.93
  C 107.47 79.43 104.82 85.29 101.11 79.18
  L 112.05 71.01
  Z"
/>
<path d="
  M 65.24 110.41
  C 67.17 110.56 68.69 111.52 70.47 111.61
  C 73.06 111.73 75.72 112.03 78.25 111.15
  C 79.16 110.84 80.10 110.57 81.05 110.35
  C 85.12 114.91 84.75 118.61 79.95 121.45
  C 78.50 122.31 77.51 123.05 77.00 123.68
  C 76.85 123.87 76.62 123.98 76.38 124.01
  C 74.21 124.23 72.06 124.20 69.95 123.92
  C 68.44 123.72 68.38 122.77 67.17 122.17
  C 61.83 119.50 60.22 115.03 65.24 110.41
  Z"
/>
<path d="
  M 148.36 114.65
  C 150.37 115.26 152.07 115.41 153.45 115.10
  C 155.00 114.74 156.42 116.08 156.15 117.65
  C 155.90 119.06 155.10 120.00 153.73 120.47
  C 151.03 121.39 148.68 120.81 146.68 118.73
  C 146.35 117.36 146.91 116.00 148.36 114.65
  Z"
/>
</g>
<g fill="#fed918">
<path d="
  M 74.21 33.74
  L 73.48 34.22
  L 69.67 34.19
  C 69.36 34.19 69.11 34.08 68.92 33.85
  C 66.64 31.28 68.96 28.29 70.20 25.95
  C 70.48 25.43 71.20 25.38 71.55 25.86
  L 73.79 29.03
  C 73.92 29.22 74.00 29.44 74.01 29.67
  L 74.21 33.74
  Z"
/>
<path d="
  M 195.71 31.06
  L 195.23 30.84
  L 194.56 30.01
  C 194.55 28.34 195.08 26.90 196.15 25.71
  C 196.48 25.34 197.04 25.27 197.45 25.56
  C 198.84 26.56 199.74 27.89 200.15 29.54
  C 200.27 30.02 199.78 30.42 199.33 30.21
  C 198.01 29.57 197.12 31.13 195.71 31.06
  Z"
/>
<path d="
  M 244.96 35.57
  C 245.06 35.70 245.02 35.77 244.83 35.80
  C 242.44 36.14 240.43 35.91 238.82 35.11
  C 237.80 34.60 237.47 33.32 238.11 32.38
  L 240.98 28.15
  C 241.19 27.84 241.44 27.80 241.72 28.05
  C 244.06 30.13 247.06 31.94 244.96 35.57
  Z"
/>
<path d="
  M 27.36 115.81
  C 26.51 115.30 25.66 114.97 24.82 114.80
  C 24.87 112.21 25.54 110.04 26.85 108.31
  C 27.35 107.65 27.86 107.64 28.37 108.29
  L 30.08 110.42
  C 30.59 111.05 30.58 111.95 30.06 112.57
  L 27.36 115.81
  Z"
/>
<path d="
  M 32.81 140.51
  C 32.70 139.99 32.89 139.62 33.38 139.39
  C 33.67 139.26 34.01 139.47 34.01 139.79
  L 34.05 141.18
  C 34.06 141.56 33.89 141.67 33.55 141.51
  C 33.15 141.32 32.90 140.99 32.81 140.51
  Z"
/>
<path d="
  M 32.12 149.85
  C 32.00 149.91 31.88 149.97 31.76 150.03
  C 31.17 150.17 30.59 150.04 30.03 149.65
  C 29.77 149.46 29.49 149.41 29.18 149.49
  C 28.19 149.74 27.59 149.33 27.38 148.24
  C 27.15 147.00 27.47 145.88 28.34 144.89
  C 28.50 144.71 28.60 144.48 28.62 144.23
  C 28.65 143.74 28.86 143.33 29.23 143.01
  C 29.54 142.74 29.80 142.79 30.01 143.15
  C 31.24 145.31 31.95 147.54 32.12 149.85
  Z"
/>
</g>
<g fill="#240703">
<path d="
  M 195.23 30.84
  L 195.71 31.06
  C 195.72 31.16 195.73 31.26 195.74 31.37
  C 197.80 33.05 196.77 33.52 192.66 32.78
  C 192.33 32.72 192.15 32.52 192.14 32.18
  C 192.13 31.94 192.17 31.68 192.27 31.41
  L 195.23 30.84
  Z"
/>
<path d="
  M 74.21 33.74
  C 74.19 34.06 74.29 34.22 74.50 34.23
  C 76.87 34.35 79.27 34.58 81.70 34.92
  C 80.77 36.29 79.23 36.89 77.09 36.72
  L 62.60 36.55
  C 61.82 36.54 61.37 35.65 61.81 34.99
  C 61.91 34.84 62.30 34.79 62.98 34.86
  C 65.28 34.85 68.89 34.06 70.90 35.15
  C 71.20 35.31 71.50 35.31 71.79 35.14
  L 73.48 34.22
  L 74.21 33.74
  Z"
/>
<path d="
  M 249.63 37.19
  C 244.98 38.94 240.07 39.08 234.90 37.63
  C 236.65 36.77 238.45 36.41 240.30 36.56
  C 244.02 36.86 246.52 36.83 249.63 37.19
  Z"
/>
<path d="
  M 154.24 113.64
  L 156.59 117.39
  C 156.77 117.68 156.81 118.04 156.71 118.36
  C 156.37 119.47 155.73 120.36 154.79 121.03
  C 154.54 121.21 154.39 121.45 154.34 121.76
  C 154.23 122.45 153.78 122.84 153.00 122.93
  C 151.73 123.08 150.57 123.04 149.54 122.82
  C 149.22 122.75 149.04 122.56 149.00 122.23
  C 148.84 120.80 147.18 120.43 146.68 118.73
  C 148.68 120.81 151.03 121.39 153.73 120.47
  C 155.10 120.00 155.90 119.06 156.15 117.65
  C 156.42 116.08 155.00 114.74 153.45 115.10
  C 152.07 115.41 150.37 115.26 148.36 114.65
  L 149.09 113.71
  C 151.06 114.42 152.77 114.39 154.24 113.64
  Z"
/>
<path d="
  M 31.05 115.23
  C 32.17 115.32 32.28 115.42 31.39 115.54
  L 35.20 115.97
  C 35.35 115.99 35.43 116.08 35.42 116.24
  C 35.41 116.33 35.41 116.41 35.41 116.49
  C 35.40 116.58 35.36 116.63 35.28 116.65
  C 30.57 117.85 26.01 117.85 21.58 116.66
  C 21.44 116.62 21.36 116.54 21.33 116.41
  C 21.28 116.16 21.38 116.03 21.63 116.02
  L 27.36 115.81
  C 28.40 116.41 29.63 116.22 31.05 115.23
  Z"
/>
</g>
<g fill="#bc3802" fill-opacity="0.996">
<path d="
  M 113.89 28.77
  C 113.96 29.25 114.03 29.41 114.11 29.24
  C 113.58 30.12 112.81 30.34 111.78 29.90
  C 111.03 29.58 110.96 29.15 111.57 28.61
  C 112.38 27.90 113.15 27.96 113.89 28.77
  Z"
/>
<path d="
  M 43.16 76.18
  C 38.34 77.53 33.46 78.20 28.51 78.17
  C 27.28 78.16 26.39 78.85 25.54 79.61
  C 25.29 79.82 25.01 79.91 24.69 79.87
  L 22.75 79.63
  C 22.51 79.60 22.26 79.63 22.03 79.71
  C 20.21 80.30 18.36 80.10 16.47 79.09
  C 14.27 77.58 14.94 74.40 17.73 73.66
  C 25.75 71.54 33.59 71.63 41.26 73.94
  C 42.42 74.29 43.05 75.03 43.16 76.18
  Z"
/>
<path d="
  M 157.47 80.72
  C 158.15 80.93 158.52 81.28 158.57 81.75
  C 158.61 82.11 158.40 82.45 158.06 82.57
  C 157.55 82.75 156.86 82.90 156.01 83.02
  C 155.24 83.13 154.70 83.01 154.39 82.65
  C 154.18 82.42 154.34 82.05 154.65 82.04
  C 155.26 82.01 155.82 81.91 156.31 81.72
  C 156.67 81.53 157.06 81.19 157.47 80.72
  Z"
/>
<path d="
  M 115.46 97.02
  C 114.66 98.03 113.31 98.27 111.40 97.76
  L 113.23 95.33
  C 113.44 95.05 113.68 95.02 113.95 95.24
  C 114.56 95.73 115.06 96.32 115.46 97.02
  Z"
/>
<path d="
  M 115.49 98.93
  C 115.32 99.30 115.42 99.66 115.79 99.99
  C 117.34 101.39 115.77 102.47 115.45 103.60
  C 114.55 106.81 115.01 109.42 116.82 111.41
  C 114.84 112.15 112.67 112.21 110.30 111.59
  C 110.22 110.50 110.87 109.85 112.25 109.66
  C 112.55 109.62 112.76 109.35 112.73 109.05
  L 112.18 103.54
  C 112.14 103.15 111.95 102.80 111.64 102.56
  C 111.21 102.24 110.93 101.83 110.78 101.34
  C 110.69 101.04 110.76 100.78 110.97 100.55
  L 112.27 99.12
  C 113.34 99.35 114.42 99.28 115.49 98.93
  Z"
/>
<path d="
  M 205.30 113.61
  C 203.58 113.32 202.41 113.52 201.79 114.22
  C 197.71 117.07 189.12 119.14 185.55 114.46
  C 184.28 112.81 184.14 110.87 185.12 108.64
  C 186.51 105.49 189.09 104.21 192.86 104.79
  C 193.19 104.84 193.45 105.01 193.62 105.30
  C 194.00 105.98 194.50 106.55 195.11 107.00
  C 195.58 107.35 195.69 107.80 195.43 108.33
  L 194.93 109.31
  C 194.67 109.83 193.94 109.85 193.64 109.35
  C 190.42 103.98 185.10 106.23 185.74 111.51
  C 186.09 114.36 188.77 114.19 190.86 114.55
  C 191.19 114.60 191.49 114.54 191.77 114.35
  L 197.44 110.48
  C 197.73 110.28 197.92 110.01 198.02 109.67
  C 198.59 107.76 199.93 106.65 202.03 106.34
  C 202.48 106.27 202.79 106.03 202.96 105.60
  L 203.73 103.63
  C 203.87 103.28 204.27 103.12 204.62 103.27
  L 204.86 103.38
  C 205.00 103.45 205.07 103.62 205.01 103.76
  L 203.11 108.37
  C 203.04 108.53 202.93 108.67 202.78 108.77
  C 199.78 110.75 197.69 113.12 194.54 114.91
  C 193.64 115.42 193.70 115.61 194.73 115.50
  C 200.79 114.81 202.23 107.78 209.16 110.29
  C 209.49 110.41 209.61 110.82 209.39 111.10
  C 208.31 112.45 206.95 113.29 205.30 113.61
  Z"
/>
<path d="
  M 203.93 114.00
  C 205.50 114.02 206.91 114.36 208.16 115.03
  C 208.42 115.17 208.46 115.53 208.23 115.72
  C 206.67 116.98 204.93 117.53 203.02 117.38
  C 201.66 117.27 200.68 116.17 200.98 115.10
  C 201.00 115.03 201.44 114.82 202.31 114.48
  L 203.93 114.00
  Z"
/>
<path d="
  M 241.21 139.99
  C 242.72 144.90 243.44 149.86 243.37 154.89
  C 243.36 155.50 243.66 155.78 244.27 155.73
  C 248.36 155.42 252.22 156.58 255.86 159.21
  C 246.63 162.64 237.42 162.83 228.24 159.77
  C 229.28 157.59 231.37 156.34 234.50 156.03
  C 236.67 155.81 238.84 155.64 241.03 155.53
  C 241.38 155.51 241.56 155.32 241.57 154.97
  L 241.66 151.36
  C 242.45 150.13 242.38 149.16 241.45 148.45
  C 241.95 145.98 241.78 143.45 240.94 140.88
  L 241.21 139.99
  Z"
/>
<path d="
  M 32.83 149.30
  C 32.70 149.61 32.47 149.79 32.12 149.85
  C 31.95 147.54 31.24 145.31 30.01 143.15
  C 29.80 142.79 29.54 142.74 29.23 143.01
  C 28.86 143.33 28.65 143.74 28.62 144.23
  C 28.60 144.48 28.50 144.71 28.34 144.89
  C 27.47 145.88 27.15 147.00 27.38 148.24
  C 27.59 149.33 28.19 149.74 29.18 149.49
  C 29.49 149.41 29.77 149.46 30.03 149.65
  C 30.59 150.04 31.17 150.17 31.76 150.03
  C 31.31 150.56 30.99 151.14 30.79 151.77
  C 30.66 152.16 30.80 152.35 31.21 152.35
  C 33.84 152.32 36.44 152.58 39.00 153.15
  C 39.41 153.24 39.73 153.24 39.96 153.15
  C 40.32 153.01 40.56 152.73 40.69 152.32
  C 40.79 152.01 40.63 151.68 40.34 151.56
  L 36.65 150.04
  C 40.59 150.29 42.58 151.38 42.62 153.31
  C 40.29 154.50 38.06 155.14 35.93 155.22
  C 35.77 155.23 35.64 155.29 35.55 155.42
  C 35.48 155.51 35.38 155.57 35.24 155.58
  C 30.51 156.20 25.81 156.28 21.14 155.83
  C 20.72 155.79 20.36 156.14 20.39 156.57
  C 20.47 157.87 20.18 158.79 19.52 159.32
  C 16.98 157.67 15.70 155.38 15.68 152.45
  C 15.68 152.12 15.83 151.81 16.09 151.61
  C 18.54 149.70 22.55 149.31 25.54 149.07
  C 25.90 149.04 26.08 148.85 26.08 148.49
  C 26.12 145.56 27.30 143.19 29.63 141.37
  C 29.86 141.20 30.02 141.24 30.11 141.51
  L 32.83 149.30
  Z"
/>
<path d="
  M 82.95 152.83
  C 79.84 154.80 77.26 157.06 73.21 155.29
  C 74.78 154.85 75.58 153.76 75.59 152.03
  C 75.90 152.20 76.06 152.47 76.06 152.83
  C 76.05 153.35 75.58 153.81 75.41 154.33
  C 75.28 154.76 75.40 154.85 75.77 154.61
  C 77.12 153.75 77.20 152.46 76.01 150.75
  C 76.58 151.00 76.96 150.92 77.13 150.51
  C 77.40 149.84 77.83 149.31 78.40 148.92
  C 78.67 148.73 78.83 148.47 78.87 148.14
  C 79.00 146.97 78.65 145.95 77.80 145.06
  L 82.02 143.39
  C 82.37 143.25 82.57 143.37 82.62 143.75
  L 82.77 144.89
  C 82.82 145.26 83.03 145.43 83.40 145.39
  L 86.54 145.03
  C 86.99 144.98 87.11 145.16 86.89 145.55
  L 82.95 152.83
  Z"
/>
<path d="
  M 186.05 152.03
  C 186.76 153.84 188.04 155.44 189.87 156.81
  C 188.26 157.13 186.23 156.69 183.80 155.48
  C 180.88 153.57 181.63 152.42 186.05 152.03
  Z"
/>
</g>
<g fill="#fc9404">
<path d="
  M 252.16 77.11
  C 252.28 80.10 251.08 82.48 248.55 84.26
  C 248.07 84.60 247.40 84.45 247.10 83.94
  C 246.85 83.52 246.54 83.03 246.16 82.47
  C 246.04 82.30 245.90 82.19 245.75 82.14
  C 245.60 82.09 245.47 82.08 245.34 82.11
  C 245.00 82.18 244.85 82.39 244.90 82.74
  C 244.97 83.29 244.89 83.72 244.66 84.02
  C 244.07 84.79 243.09 85.78 241.74 87.00
  C 241.51 87.21 241.23 87.29 240.92 87.24
  C 238.84 86.95 236.79 87.01 234.78 87.43
  C 229.86 85.52 225.18 81.10 225.29 75.27
  C 225.30 74.87 225.76 74.64 226.08 74.88
  L 228.54 76.76
  C 228.85 76.99 229.29 76.80 229.32 76.42
  L 229.46 74.80
  C 229.49 74.49 229.65 74.37 229.94 74.44
  C 232.59 75.03 234.17 76.51 235.23 78.59
  C 235.42 78.96 235.66 78.99 235.95 78.68
  L 241.06 72.97
  C 241.21 72.80 241.36 72.81 241.49 73.00
  L 245.34 78.36
  C 245.60 78.72 245.85 78.71 246.09 78.33
  C 247.36 76.28 249.18 74.99 251.56 74.45
  C 251.89 74.37 252.10 74.49 252.19 74.82
  C 252.36 75.42 252.35 76.18 252.16 77.11
  Z"
/>
<path d="
  M 191.35 144.97
  L 195.34 149.39
  C 194.50 153.06 191.16 152.48 188.54 151.53
  C 185.24 148.94 185.30 145.69 184.20 142.21
  C 184.11 141.91 184.22 141.73 184.53 141.67
  C 185.68 141.47 186.68 141.68 187.51 142.31
  C 189.35 143.70 190.63 144.58 191.35 144.97
  Z"
/>
<path d="
  M 207.51 143.73
  C 207.67 143.64 207.62 143.55 207.37 143.46
  C 207.20 143.39 207.08 143.44 207.01 143.61
  C 205.46 147.24 205.11 150.87 200.83 152.78
  C 200.24 152.76 199.97 152.49 200.01 151.96
  C 201.28 150.55 202.19 149.16 202.76 147.78
  C 203.06 147.04 202.87 146.87 202.18 147.28
  L 197.06 150.26
  C 196.65 152.43 199.28 154.80 196.81 156.68
  C 195.24 157.00 193.89 156.89 192.77 156.35
  C 192.03 153.77 194.60 152.01 196.05 150.32
  C 196.47 148.74 196.38 147.05 195.77 145.25
  C 195.73 145.13 195.76 145.00 195.85 144.91
  L 196.30 144.42
  C 196.48 144.23 196.79 144.29 196.89 144.52
  C 197.40 145.63 197.36 146.72 196.79 147.79
  C 196.62 148.10 196.71 148.31 197.05 148.42
  C 197.36 148.51 197.59 148.48 197.76 148.31
  C 199.24 146.78 200.70 145.27 202.15 143.76
  C 204.11 142.19 206.03 141.48 207.92 141.63
  C 208.35 141.66 208.46 141.87 208.27 142.26
  L 207.51 143.73
  Z"
/>
<path d="
  M 67.67 144.79
  C 68.66 145.15 68.69 145.88 67.76 146.97
  C 66.61 148.08 65.97 149.45 65.86 151.08
  C 65.83 151.41 65.40 151.52 65.22 151.24
  L 64.65 150.36
  C 64.33 149.87 64.22 149.28 64.35 148.71
  L 65.23 144.73
  C 65.34 144.48 65.47 144.29 65.62 144.14
  C 65.85 143.91 66.11 143.88 66.39 144.04
  L 67.67 144.79
  Z"
/>
<path d="
  M 71.22 147.57
  C 71.37 147.62 71.53 147.68 71.69 147.73
  C 72.72 149.06 72.56 150.30 71.21 151.45
  C 70.99 151.64 70.70 151.73 70.41 151.69
  L 67.82 151.34
  C 67.46 151.29 67.19 150.99 67.18 150.63
  C 67.15 149.53 67.57 148.40 68.42 147.23
  C 69.49 146.41 70.43 146.52 71.22 147.57
  Z"
/>
</g>
<g fill="#fbf6e8">
<path d="
  M 153.18 32.93
  C 152.77 32.66 152.43 32.18 152.15 31.51
  C 152.04 31.25 151.67 31.25 151.56 31.51
  L 151.11 32.51
  C 150.96 32.86 150.70 32.99 150.33 32.89
  C 150.12 32.84 149.96 32.72 149.85 32.53
  C 148.02 30.68 149.77 27.21 151.19 25.61
  C 151.42 25.36 151.65 25.35 151.88 25.59
  C 153.10 26.87 157.14 32.16 153.18 32.93
  Z"
/>
<path d="
  M 74.61 108.57
  C 74.86 108.45 74.82 108.54 74.49 108.85
  C 73.48 109.31 72.51 109.30 71.56 108.81
  C 71.38 108.38 71.12 108.04 70.78 107.80
  L 71.48 103.50
  C 71.61 102.72 72.55 102.38 73.15 102.90
  C 74.66 104.19 75.14 106.08 74.61 108.57
  Z"
/>
</g>
<g fill="#741c06">
<path d="
  M 227.64 33.79
  C 225.96 38.50 235.84 41.51 239.31 42.13
  L 239.86 42.13
  C 240.33 42.13 240.43 42.32 240.18 42.71
  L 239.44 43.84
  C 239.22 44.17 238.79 44.26 238.46 44.05
  C 236.74 42.94 234.92 42.04 233.00 41.37
  C 230.99 40.66 229.86 39.35 228.09 38.26
  C 227.73 38.04 227.56 38.14 227.57 38.56
  C 227.63 40.53 229.86 41.99 231.34 42.80
  C 231.62 42.95 231.90 42.95 232.18 42.80
  C 233.35 42.17 234.34 42.45 235.15 43.64
  C 235.62 44.35 236.27 44.66 237.08 44.55
  C 237.41 44.51 237.74 44.55 238.05 44.66
  C 239.40 45.16 240.80 45.34 242.27 45.19
  C 242.66 45.16 242.86 44.95 242.89 44.56
  L 243.06 42.34
  C 243.07 42.24 243.14 42.16 243.24 42.13
  C 243.39 42.08 243.50 42.15 243.57 42.34
  C 248.28 41.79 254.49 39.64 255.93 34.40
  C 258.45 40.35 253.68 45.74 248.01 46.93
  C 247.72 46.99 247.54 47.17 247.48 47.46
  C 246.78 51.14 239.47 50.45 237.03 49.88
  C 235.53 49.53 234.95 48.76 235.30 47.55
  C 235.39 47.26 235.28 47.10 234.98 47.07
  C 228.69 46.54 225.22 40.04 227.07 34.32
  C 227.32 33.93 227.51 33.75 227.64 33.79
  Z
  M 247.94 43.13
  C 248.17 43.07 248.35 42.95 248.49 42.77
  C 248.81 42.36 248.72 42.24 248.23 42.41
  L 244.23 43.86
  C 243.98 43.95 243.84 44.22 243.91 44.48
  L 244.06 45.02
  C 244.19 45.49 244.45 45.58 244.84 45.29
  L 247.52 43.34
  C 247.65 43.25 247.79 43.18 247.94 43.13
  Z"
/>
<path d="
  M 110.67 34.08
  C 110.61 35.08 111.71 35.44 113.96 35.16
  C 114.49 36.91 115.63 39.58 117.38 43.15
  C 119.15 46.76 117.11 50.26 113.11 50.26
  C 111.26 50.27 109.79 50.47 108.30 49.22
  C 106.22 47.47 106.03 45.38 107.73 42.94
  L 107.57 45.76
  C 107.51 46.86 108.34 47.81 109.44 47.89
  L 114.43 48.27
  C 116.04 48.39 117.26 46.85 116.77 45.31
  L 115.66 41.82
  C 115.58 41.56 115.42 41.37 115.18 41.25
  C 112.13 39.73 109.77 40.33 108.10 43.05
  C 108.07 43.10 108.02 43.11 107.96 43.08
  C 107.88 43.03 107.80 42.99 107.73 42.94
  L 109.10 40.24
  C 109.27 39.91 109.33 39.56 109.28 39.19
  C 109.18 38.48 109.37 37.88 109.86 37.39
  C 110.10 37.14 110.26 36.82 110.31 36.47
  L 110.67 34.08
  Z"
/>
<path d="
  M 81.70 34.92
  C 82.36 34.91 82.98 35.08 83.57 35.43
  C 83.86 35.61 83.98 35.87 83.92 36.20
  C 83.35 39.53 81.64 42.12 78.80 43.96
  C 78.50 44.15 78.27 44.40 78.10 44.71
  C 77.58 45.70 77.12 46.41 75.95 46.71
  C 72.97 47.47 66.98 48.24 65.26 44.67
  C 65.12 44.38 64.90 44.16 64.59 44.02
  C 61.68 42.73 59.89 40.47 59.21 37.26
  C 64.30 39.15 69.92 39.00 75.24 38.59
  C 77.33 38.42 77.94 37.80 77.09 36.72
  C 79.23 36.89 80.77 36.29 81.70 34.92
  Z"
/>
<path d="
  M 123.48 65.45
  C 123.77 67.10 123.11 68.10 121.50 68.46
  C 118.61 69.11 116.37 70.35 114.79 72.17
  C 114.77 71.16 114.68 70.52 114.52 70.25
  C 114.26 69.82 113.76 69.65 113.03 69.75
  L 114.82 67.64
  C 115.08 68.79 115.55 69.40 116.24 69.45
  C 116.63 69.48 116.91 69.32 117.08 68.98
  L 117.52 68.09
  C 117.61 67.92 117.73 67.88 117.90 67.97
  C 118.40 68.24 118.85 68.27 119.26 68.08
  C 120.14 67.67 121.02 67.24 121.90 66.77
  C 122.19 66.61 122.42 66.37 122.56 66.07
  C 122.82 65.50 123.13 65.30 123.48 65.45
  Z"
/>
<path d="
  M 43.16 76.18
  C 42.28 78.15 40.76 79.71 38.61 80.88
  C 38.33 81.03 38.22 81.38 38.37 81.67
  L 38.57 82.06
  C 38.78 82.45 38.74 82.81 38.43 83.14
  C 37.42 84.23 36.28 84.30 35.01 83.35
  C 34.76 83.15 34.43 83.08 34.11 83.15
  C 29.72 84.07 25.35 83.93 21.02 82.74
  C 20.70 82.65 20.35 82.67 20.03 82.80
  C 19.28 83.11 18.61 82.98 18.04 82.40
  C 17.77 82.13 17.70 81.81 17.81 81.44
  L 17.95 81.01
  C 18.05 80.69 17.96 80.44 17.67 80.27
  C 17.14 79.96 16.74 79.57 16.47 79.09
  C 18.36 80.10 20.21 80.30 22.03 79.71
  C 22.26 79.63 22.51 79.60 22.75 79.63
  L 24.69 79.87
  C 25.01 79.91 25.29 79.82 25.54 79.61
  C 26.39 78.85 27.28 78.16 28.51 78.17
  C 33.46 78.20 38.34 77.53 43.16 76.18
  Z"
/>
<path d="
  M 154.69 79.73
  C 154.68 80.09 155.04 80.27 155.79 80.26
  C 155.83 80.35 155.86 80.43 155.88 80.51
  C 155.92 80.74 155.83 80.88 155.60 80.95
  L 154.61 81.22
  C 154.07 80.69 153.55 80.38 153.05 80.29
  L 154.69 79.73
  Z"
/>
<path d="
  M 76.01 150.75
  C 77.20 152.46 77.12 153.75 75.77 154.61
  C 75.40 154.85 75.28 154.76 75.41 154.33
  C 75.58 153.81 76.05 153.35 76.06 152.83
  C 76.06 152.47 75.90 152.20 75.59 152.03
  L 71.69 147.73
  C 71.53 147.68 71.37 147.62 71.22 147.57
  C 68.27 143.08 69.73 141.82 75.60 143.79
  C 75.98 143.92 76.21 144.32 76.11 144.72
  C 75.82 145.88 75.19 146.81 74.20 147.50
  C 73.94 147.68 73.85 148.03 73.99 148.32
  C 74.45 149.23 75.12 150.04 76.01 150.75
  Z"
/>
<path d="
  M 207.51 143.73
  C 207.33 146.62 206.39 149.07 204.69 151.08
  C 204.40 151.42 204.63 151.94 205.07 151.97
  C 206.79 152.09 208.29 152.13 209.56 152.10
  C 210.58 152.08 211.02 152.59 210.88 153.63
  C 210.84 153.90 210.70 154.11 210.47 154.26
  C 208.17 155.69 207.69 156.38 205.98 159.09
  C 204.75 161.06 202.47 161.79 200.35 162.48
  C 200.04 162.58 199.79 162.77 199.60 163.04
  C 197.54 166.01 195.10 164.97 193.03 162.86
  C 192.81 162.63 192.52 162.47 192.21 162.38
  C 189.75 161.75 187.58 161.18 186.97 158.68
  C 186.88 158.34 186.69 158.09 186.38 157.92
  C 185.40 157.39 184.54 156.57 183.80 155.48
  C 186.23 156.69 188.26 157.13 189.87 156.81
  C 191.53 156.96 192.50 156.80 192.77 156.35
  C 193.89 156.89 195.24 157.00 196.81 156.68
  C 198.20 156.96 199.35 156.74 200.25 156.01
  C 200.52 155.79 200.62 155.51 200.55 155.17
  C 200.37 154.35 200.46 153.55 200.83 152.78
  C 205.11 150.87 205.46 147.24 207.01 143.61
  C 207.08 143.44 207.20 143.39 207.37 143.46
  C 207.62 143.55 207.67 143.64 207.51 143.73
  Z"
/>
<path d="
  M 32.83 149.30
  C 34.64 149.43 35.92 149.68 36.65 150.04
  L 40.34 151.56
  C 40.63 151.68 40.79 152.01 40.69 152.32
  C 40.56 152.73 40.32 153.01 39.96 153.15
  C 39.73 153.24 39.41 153.24 39.00 153.15
  C 36.44 152.58 33.84 152.32 31.21 152.35
  C 30.80 152.35 30.66 152.16 30.79 151.77
  C 30.99 151.14 31.31 150.56 31.76 150.03
  C 31.88 149.97 32.00 149.91 32.12 149.85
  C 32.47 149.79 32.70 149.61 32.83 149.30
  Z"
/>
<path d="
  M 60.47 150.09
  C 61.70 150.71 62.48 151.70 62.83 153.05
  C 61.69 152.38 60.90 151.39 60.47 150.09
  Z"
/>
<path d="
  M 60.96 154.67
  C 61.83 154.71 62.30 155.06 62.37 155.71
  C 62.40 156.03 62.50 156.33 62.67 156.60
  L 63.98 158.73
  C 64.44 165.74 54.24 161.50 57.40 156.93
  C 58.12 155.88 59.31 155.13 60.96 154.67
  Z"
/>
<path d="
  M 255.86 159.21
  C 247.05 167.84 237.84 168.02 228.24 159.77
  C 237.42 162.83 246.63 162.64 255.86 159.21
  Z"
/>
</g>
<g fill="#4c0b02">
<path d="
  M 242.72 41.49
  L 240.49 41.76
  C 240.63 41.13 240.85 40.60 241.14 40.17
  C 241.35 39.85 241.60 39.82 241.89 40.07
  C 242.28 40.42 242.55 40.89 242.72 41.49
  Z"
/>
<path d="
  M 209.13 41.30
  C 209.32 41.97 209.30 42.76 209.05 43.65
  C 208.96 43.96 208.77 44.18 208.46 44.30
  C 206.07 45.25 203.55 45.46 200.90 44.95
  L 200.91 42.67
  C 200.91 42.28 201.11 42.10 201.50 42.13
  C 204.17 42.37 206.71 42.09 209.13 41.30
  Z"
/>
<path d="
  M 23.39 123.15
  C 22.83 123.38 22.39 123.39 22.08 123.17
  C 21.87 123.02 21.78 122.77 21.83 122.43
  C 22.47 122.16 22.99 122.40 23.39 123.15
  Z"
/>
<path d="
  M 82.95 152.83
  C 86.99 153.00 90.12 155.77 88.38 159.89
  C 86.60 164.11 79.54 163.98 79.19 158.61
  C 79.17 158.32 79.01 158.18 78.72 158.19
  L 63.98 158.73
  L 62.67 156.60
  C 62.50 156.33 62.40 156.03 62.37 155.71
  C 62.30 155.06 61.83 154.71 60.96 154.67
  C 62.38 154.63 63.47 154.30 64.22 153.69
  L 73.21 155.29
  C 77.26 157.06 79.84 154.80 82.95 152.83
  Z"
/>
<path d="
  M 42.62 153.31
  C 41.29 157.72 38.51 160.42 34.29 161.43
  C 33.96 161.51 33.76 161.83 33.84 162.16
  L 33.96 162.70
  C 34.04 163.03 33.92 163.25 33.61 163.38
  C 30.68 164.53 28.04 164.33 25.70 162.78
  C 23.54 161.34 21.44 160.77 19.52 159.32
  C 20.18 158.79 20.47 157.87 20.39 156.57
  C 20.36 156.14 20.72 155.79 21.14 155.83
  C 25.81 156.28 30.51 156.20 35.24 155.58
  C 35.38 155.57 35.48 155.51 35.55 155.42
  C 35.64 155.29 35.77 155.23 35.93 155.22
  C 38.06 155.14 40.29 154.50 42.62 153.31
  Z"
/>
<path d="
  M 109.51 160.76
  L 118.46 160.70
  C 118.35 161.35 118.47 161.88 118.82 162.28
  C 119.41 162.96 119.13 164.02 118.28 164.31
  C 115.36 165.31 112.42 165.37 109.46 164.49
  C 108.45 164.19 108.17 162.88 108.98 162.20
  C 109.40 161.84 109.58 161.36 109.51 160.76
  Z"
/>
</g>
<g fill="#de4805">
<path d="
  M 246.07 35.44
  L 244.96 35.57
  C 247.06 31.94 244.06 30.13 241.72 28.05
  C 241.44 27.80 241.19 27.84 240.98 28.15
  L 238.11 32.38
  C 237.47 33.32 237.80 34.60 238.82 35.11
  C 240.43 35.91 242.44 36.14 244.83 35.80
  C 242.02 36.63 239.57 36.60 237.50 35.72
  C 236.29 33.98 235.87 32.25 236.25 30.53
  C 236.86 27.79 240.83 25.60 241.02 23.22
  C 241.13 21.98 241.46 21.91 242.03 23.02
  C 242.43 23.79 243.02 24.48 243.81 25.11
  C 244.72 25.83 245.33 26.46 245.66 27.00
  C 247.18 29.56 248.69 33.00 246.07 35.44
  Z"
/>
<path d="
  M 154.69 79.73
  L 153.05 80.29
  C 148.32 80.28 143.04 77.89 143.96 72.12
  C 144.02 71.75 144.26 71.43 144.60 71.27
  C 145.68 70.78 146.81 70.49 147.99 70.42
  C 149.14 70.35 149.27 69.95 148.37 69.22
  C 147.08 68.17 146.71 66.80 147.28 65.12
  C 148.23 62.27 151.81 61.38 152.71 58.57
  C 152.81 58.27 152.94 58.26 153.10 58.53
  C 154.67 61.08 159.17 66.64 155.55 69.19
  C 154.46 69.95 154.58 70.36 155.90 70.41
  C 158.64 70.51 160.61 70.72 160.33 74.24
  C 160.04 77.87 158.26 79.10 154.69 79.73
  Z
  M 154.92 74.81
  L 147.72 74.71
  C 147.47 74.71 147.26 74.91 147.26 75.15
  L 147.26 75.46
  C 147.23 77.18 148.73 78.58 150.60 78.61
  L 151.92 78.63
  C 153.80 78.66 155.33 77.29 155.36 75.58
  L 155.36 75.27
  C 155.36 75.02 155.17 74.81 154.92 74.81
  Z"
/>
<path d="
  M 83.22 71.78
  L 83.12 73.10
  C 83.09 73.49 82.88 73.72 82.50 73.79
  L 80.22 74.20
  C 79.94 74.25 79.78 74.56 79.91 74.82
  C 80.02 75.05 80.19 75.23 80.42 75.37
  C 80.72 75.55 81.10 75.52 81.39 75.31
  L 83.35 73.87
  C 83.64 73.66 83.83 73.38 83.94 73.04
  C 84.01 72.79 84.05 72.55 84.06 72.32
  C 84.43 72.17 84.74 72.09 85.00 72.10
  C 85.82 72.12 86.45 72.84 86.35 73.65
  C 86.18 75.12 85.66 76.48 84.81 77.73
  C 81.48 77.92 81.05 80.70 77.81 80.94
  C 77.39 80.97 77.26 80.79 77.42 80.40
  C 77.85 79.39 78.37 78.42 78.98 77.49
  C 79.01 77.44 78.99 77.38 78.94 77.36
  L 78.72 77.24
  C 78.57 77.16 78.46 77.20 78.39 77.35
  C 77.44 79.47 76.26 80.97 73.76 81.35
  C 70.84 81.79 67.92 82.66 65.28 80.73
  C 65.07 80.58 64.88 80.55 64.72 80.65
  C 64.50 80.79 64.29 80.78 64.10 80.61
  C 63.68 80.26 63.25 80.12 62.80 80.20
  C 61.27 79.17 60.14 78.06 59.42 76.89
  C 59.79 75.16 60.32 73.72 61.03 72.56
  C 62.68 71.05 63.83 70.21 64.50 70.02
  C 69.92 68.49 78.82 67.91 83.22 71.78
  Z"
/>
<path d="
  M 146.76 80.41
  C 146.76 81.24 147.34 81.73 148.50 81.86
  C 149.26 81.94 149.68 81.73 149.76 81.23
  C 151.09 81.00 152.42 81.05 153.75 81.38
  C 153.92 81.43 153.98 81.53 153.95 81.69
  L 153.90 81.96
  C 153.89 82.03 153.86 82.05 153.79 82.02
  C 152.07 81.30 150.66 81.54 149.55 82.74
  C 149.34 82.97 149.08 83.13 148.77 83.20
  C 147.67 83.47 146.73 83.25 145.96 82.54
  C 145.54 82.15 145.38 81.76 145.49 81.35
  C 145.61 80.88 146.03 80.56 146.76 80.41
  Z"
/>
<path d="
  M 63.29 81.09
  L 68.94 83.36
  C 68.18 84.19 67.40 84.72 66.61 84.96
  C 66.29 85.06 65.99 85.01 65.70 84.82
  L 62.18 82.48
  C 61.82 82.24 61.80 81.97 62.11 81.67
  C 62.39 81.40 62.78 81.20 63.29 81.09
  Z"
/>
<path d="
  M 202.15 143.76
  C 200.70 145.27 199.24 146.78 197.76 148.31
  C 197.59 148.48 197.36 148.51 197.05 148.42
  C 196.71 148.31 196.62 148.10 196.79 147.79
  C 197.36 146.72 197.40 145.63 196.89 144.52
  C 196.79 144.29 196.48 144.23 196.30 144.42
  L 195.85 144.91
  C 195.76 145.00 195.73 145.13 195.77 145.25
  C 196.38 147.05 196.47 148.74 196.05 150.32
  L 195.85 149.55
  C 195.82 149.43 195.74 149.37 195.61 149.37
  C 195.50 149.37 195.41 149.38 195.34 149.39
  L 191.35 144.97
  C 190.35 141.60 192.59 139.16 195.16 137.17
  C 195.36 137.02 195.51 136.82 195.59 136.58
  L 195.85 135.84
  C 195.98 135.49 196.45 135.43 196.66 135.74
  L 202.15 143.76
  Z"
/>
<path d="
  M 197.06 150.26
  C 197.49 151.60 198.47 152.17 200.01 151.96
  C 199.97 152.49 200.24 152.76 200.83 152.78
  C 200.46 153.55 200.37 154.35 200.55 155.17
  C 200.62 155.51 200.52 155.79 200.25 156.01
  C 199.35 156.74 198.20 156.96 196.81 156.68
  C 199.28 154.80 196.65 152.43 197.06 150.26
  Z"
/>
</g>
<g fill="#0b0404">
<path d="
  M 228.81 32.10
  C 228.22 32.51 227.83 33.08 227.64 33.79
  C 227.51 33.75 227.32 33.93 227.07 34.32
  C 226.92 33.52 226.94 32.75 227.15 32.01
  C 227.24 31.69 227.45 31.57 227.77 31.65
  C 228.14 31.74 228.48 31.89 228.81 32.10
  Z"
/>
<path d="
  M 231.98 31.59
  C 232.97 31.56 233.33 32.01 233.06 32.94
  C 232.77 33.90 232.65 34.74 232.68 35.46
  L 232.09 36.29
  C 230.56 35.76 229.74 34.91 229.62 33.72
  C 229.59 33.40 229.74 33.09 230.00 32.91
  L 231.98 31.59
  Z"
/>
<path d="
  M 250.97 31.54
  L 253.55 32.99
  C 253.87 33.17 254.01 33.44 253.97 33.81
  C 253.86 34.81 253.09 35.62 251.66 36.24
  C 251.57 36.27 251.44 36.08 251.26 35.68
  L 251.42 35.47
  C 251.53 35.32 251.53 35.17 251.42 35.02
  C 250.04 33.12 249.89 31.96 250.97 31.54
  Z"
/>
<path d="
  M 185.64 41.45
  C 186.36 42.43 186.56 43.19 186.25 43.74
  C 185.28 43.07 184.34 43.15 183.41 43.96
  C 183.14 44.19 182.77 44.28 182.43 44.19
  C 181.45 43.94 180.99 43.28 181.05 42.20
  C 181.12 40.95 182.51 40.24 183.56 40.92
  C 184.36 41.44 185.05 41.62 185.64 41.45
  Z"
/>
<path d="
  M 110.19 76.93
  C 109.04 79.71 107.00 82.77 103.85 83.21
  C 101.48 83.54 100.56 82.20 101.11 79.18
  C 104.82 85.29 107.47 79.43 110.19 76.93
  Z"
/>
<path d="
  M 155.79 80.26
  C 156.40 80.12 156.96 80.27 157.47 80.72
  C 157.06 81.19 156.67 81.53 156.31 81.72
  C 156.44 81.12 155.87 80.95 154.61 81.22
  L 155.60 80.95
  C 155.83 80.88 155.92 80.74 155.88 80.51
  C 155.86 80.43 155.83 80.35 155.79 80.26
  Z"
/>
<path d="
  M 146.76 80.41
  L 149.58 80.99
  C 149.56 81.08 149.62 81.16 149.76 81.23
  C 149.68 81.73 149.26 81.94 148.50 81.86
  C 147.34 81.73 146.76 81.24 146.76 80.41
  Z"
/>
<path d="
  M 75.17 82.45
  L 71.66 82.45
  C 72.29 81.68 73.46 81.68 75.17 82.45
  Z"
/>
<path d="
  M 115.46 97.02
  C 115.82 97.14 116.02 97.39 116.06 97.76
  C 116.11 98.27 115.92 98.66 115.49 98.93
  C 114.42 99.28 113.34 99.35 112.27 99.12
  C 111.99 98.86 111.70 98.41 111.40 97.76
  C 113.31 98.27 114.66 98.03 115.46 97.02
  Z"
/>
<path d="
  M 116.82 111.41
  C 117.06 112.16 117.17 112.83 117.15 113.42
  C 115.01 114.33 112.61 114.33 109.96 113.40
  L 110.30 111.59
  C 112.67 112.21 114.84 112.15 116.82 111.41
  Z"
/>
<path d="
  M 205.30 113.61
  C 204.68 113.66 204.22 113.79 203.93 114.00
  L 202.31 114.48
  C 202.31 114.27 202.14 114.19 201.79 114.22
  C 202.41 113.52 203.58 113.32 205.30 113.61
  Z"
/>
<path d="
  M 153.69 152.25
  C 154.82 152.79 156.35 152.95 158.28 152.72
  C 159.51 152.58 160.07 154.22 159.01 154.86
  L 157.80 155.59
  C 153.23 156.42 149.18 156.36 145.67 155.43
  C 143.68 154.90 143.66 154.29 145.59 153.59
  C 146.01 153.44 146.82 153.28 148.03 153.11
  C 149.05 152.96 149.85 153.30 150.43 154.14
  C 150.65 154.47 150.91 154.51 151.22 154.27
  C 151.66 153.92 152.02 153.25 152.31 152.27
  C 153.73 151.70 154.19 151.70 153.69 152.25
  Z"
/>
</g>
<g fill="#668a24">
<path d="
  M 147.92 101.53
  C 147.97 102.50 147.85 103.42 147.57 104.27
  C 147.44 104.67 146.90 104.74 146.67 104.39
  C 145.79 103.06 144.53 102.32 142.88 102.18
  C 142.49 102.15 142.18 101.98 141.93 101.67
  C 141.77 101.47 141.56 101.37 141.30 101.37
  C 140.95 101.38 140.80 101.55 140.85 101.90
  C 140.90 102.27 141.10 102.51 141.43 102.62
  C 145.13 103.84 147.42 106.25 148.31 109.86
  C 148.39 110.18 148.32 110.46 148.11 110.71
  C 147.69 111.20 147.26 111.54 146.83 111.73
  C 140.30 109.17 139.07 105.49 137.85 98.99
  C 137.80 98.69 137.92 98.54 138.23 98.53
  C 142.01 98.52 145.77 98.41 147.92 101.53
  Z"
/>
<path d="
  M 250.25 142.16
  C 252.69 141.59 255.28 142.26 257.88 142.23
  C 258.20 142.22 258.27 142.35 258.09 142.62
  C 255.20 146.77 251.21 148.44 246.14 147.63
  C 245.83 147.58 245.52 147.71 245.34 147.96
  L 244.23 149.48
  C 244.15 149.59 244.06 149.65 244.01 149.63
  L 244.01 149.63
  C 243.92 149.58 243.90 149.51 243.95 149.42
  C 245.29 146.95 246.24 147.22 245.30 143.99
  C 244.33 140.68 245.70 136.22 249.26 134.99
  C 251.08 134.37 254.12 135.09 256.48 134.84
  C 256.87 134.79 256.96 134.94 256.77 135.28
  C 255.93 136.75 254.89 138.04 253.65 139.15
  C 252.61 140.08 250.96 140.34 249.95 141.70
  C 249.64 142.12 249.74 142.27 250.25 142.16
  Z"
/>
<path d="
  M 241.45 148.45
  C 242.38 149.16 242.45 150.13 241.66 151.36
  C 240.21 150.83 239.03 150.10 238.13 149.19
  C 237.86 148.92 237.92 148.77 238.30 148.73
  L 241.45 148.45
  Z"
/>
</g>
<g fill="#425b0e">
<path d="
  M 199.99 69.83
  C 199.40 70.23 199.06 70.74 198.96 71.36
  C 194.85 72.23 192.35 74.66 191.48 78.67
  C 191.35 79.24 191.56 79.40 192.09 79.15
  L 192.96 78.72
  C 193.19 78.61 193.44 78.55 193.71 78.56
  L 196.23 78.61
  C 196.41 78.61 196.52 78.70 196.57 78.88
  C 196.68 79.30 196.78 79.38 196.88 79.12
  C 196.77 79.58 196.56 79.73 196.26 79.57
  L 196.03 79.27
  C 195.82 78.98 195.55 78.88 195.20 78.97
  C 191.13 80.01 189.67 82.19 187.34 84.92
  C 187.07 85.24 186.78 85.25 186.48 84.95
  L 186.30 84.77
  C 186.16 84.63 186.16 84.39 186.30 84.25
  C 188.91 81.65 190.76 78.48 191.85 74.73
  C 192.61 73.97 193.15 72.93 193.47 71.61
  C 194.17 71.66 194.49 71.00 194.42 69.62
  C 194.40 69.31 194.30 69.04 194.11 68.80
  C 191.40 65.46 196.73 61.45 199.17 59.72
  C 199.39 59.56 199.70 59.71 199.71 59.98
  C 199.81 62.40 200.54 64.64 200.18 67.09
  C 200.05 67.98 199.98 68.89 199.99 69.83
  Z
  M 195.54 72.00
  L 198.59 70.00
  C 198.67 69.95 198.69 69.84 198.64 69.76
  L 198.58 69.67
  C 198.17 69.03 197.16 68.95 196.35 69.49
  L 195.96 69.74
  C 195.15 70.28 194.82 71.23 195.24 71.87
  L 195.30 71.95
  C 195.35 72.03 195.46 72.06 195.54 72.00
  Z"
/>
<path d="
  M 152.31 152.27
  C 152.02 153.25 151.66 153.92 151.22 154.27
  C 150.91 154.51 150.65 154.47 150.43 154.14
  C 149.85 153.30 149.05 152.96 148.03 153.11
  C 149.20 153.12 149.72 152.83 149.59 152.23
  C 150.90 150.95 150.61 149.82 148.71 148.84
  C 146.92 147.92 145.08 147.00 143.19 146.08
  C 142.90 145.94 142.90 145.52 143.20 145.39
  C 146.63 143.92 149.00 144.87 150.33 148.26
  C 150.44 148.56 150.57 148.56 150.70 148.27
  C 151.81 145.84 151.53 143.97 149.86 142.68
  C 148.07 141.29 145.55 141.98 143.38 140.06
  C 143.12 139.83 143.16 139.70 143.51 139.67
  C 146.65 139.44 149.13 140.55 150.96 143.01
  C 151.22 143.37 151.79 143.20 151.81 142.76
  L 152.03 138.23
  C 152.05 137.86 151.93 137.56 151.66 137.31
  L 150.98 136.67
  C 150.70 136.40 150.56 136.01 150.62 135.63
  C 150.80 134.42 151.23 133.30 151.91 132.25
  C 152.33 131.61 152.74 131.61 153.15 132.25
  L 154.40 134.20
  C 154.87 134.93 154.84 135.64 154.31 136.33
  C 152.40 138.83 152.89 143.14 152.60 145.55
  C 152.34 147.76 152.24 150.00 152.31 152.27
  Z"
/>
<path d="
  M 158.88 138.07
  L 161.15 137.50
  C 161.64 137.38 161.81 137.56 161.66 138.04
  C 160.71 141.10 158.66 142.51 155.51 142.27
  C 154.18 142.17 153.56 140.56 154.48 139.59
  C 155.26 138.77 156.46 137.18 157.95 137.96
  C 158.25 138.11 158.56 138.15 158.88 138.07
  Z"
/>
<path d="
  M 114.43 140.05
  C 114.60 139.22 114.78 138.76 114.97 138.66
  L 114.98 139.63
  C 114.98 140.14 115.17 140.22 115.54 139.87
  L 116.02 139.41
  C 116.29 139.15 116.62 138.98 116.99 138.89
  L 119.09 138.38
  C 120.04 138.15 120.23 138.44 119.67 139.23
  C 118.54 140.83 117.03 141.95 115.15 142.59
  C 114.80 142.71 114.55 142.93 114.38 143.26
  C 114.13 143.79 114.00 144.38 114.01 145.03
  C 113.70 145.17 113.42 145.16 113.18 144.99
  C 113.32 143.62 112.79 142.76 111.59 142.39
  C 109.22 141.65 107.78 140.29 107.28 138.30
  C 107.17 137.83 107.34 137.69 107.79 137.86
  C 108.68 138.19 109.57 138.27 110.48 138.10
  C 112.26 137.75 113.77 139.36 113.20 140.98
  C 113.10 141.26 113.18 141.49 113.43 141.66
  C 113.69 141.83 113.92 141.80 114.11 141.55
  C 114.42 141.17 114.52 140.67 114.43 140.05
  Z"
/>
<path d="
  M 163.00 146.29
  C 160.48 148.43 157.31 148.47 155.01 150.54
  C 154.14 151.32 154.06 151.25 154.77 150.32
  C 156.99 147.40 158.41 143.91 162.94 145.89
  C 163.17 145.99 163.19 146.12 163.00 146.29
  Z"
/>
<path d="
  M 200.01 151.96
  C 198.47 152.17 197.49 151.60 197.06 150.26
  L 202.18 147.28
  C 202.87 146.87 203.06 147.04 202.76 147.78
  C 202.19 149.16 201.28 150.55 200.01 151.96
  Z"
/>
<path d="
  M 195.34 149.39
  C 195.41 149.38 195.50 149.37 195.61 149.37
  C 195.74 149.37 195.82 149.43 195.85 149.55
  L 196.05 150.32
  C 194.60 152.01 192.03 153.77 192.77 156.35
  C 192.50 156.80 191.53 156.96 189.87 156.81
  C 188.04 155.44 186.76 153.84 186.05 152.03
  C 187.30 152.28 188.13 152.11 188.54 151.53
  C 191.16 152.48 194.50 153.06 195.34 149.39
  Z"
/>
</g>
<path fill="#0b1e1b" fill-opacity="0.996" d="
  M 71.56 108.81
  C 72.51 109.30 73.48 109.31 74.49 108.85
  C 76.92 109.25 78.83 108.19 81.05 110.35
  C 80.10 110.57 79.16 110.84 78.25 111.15
  C 75.72 112.03 73.06 111.73 70.47 111.61
  C 68.69 111.52 67.17 110.56 65.24 110.41
  C 66.76 108.51 69.38 109.06 71.56 108.81
  Z"
/>
<g fill="#f25f15" fill-opacity="0.996">
<path d="
  M 74.21 33.74
  L 74.01 29.67
  C 74.00 29.44 73.92 29.22 73.79 29.03
  L 71.55 25.86
  C 71.20 25.38 70.48 25.43 70.20 25.95
  C 68.96 28.29 66.64 31.28 68.92 33.85
  C 69.11 34.08 69.36 34.19 69.67 34.19
  L 73.48 34.22
  L 71.79 35.14
  C 71.50 35.31 71.20 35.31 70.90 35.15
  C 68.89 34.06 65.28 34.85 62.98 34.86
  C 64.04 34.77 64.63 34.55 64.74 34.20
  C 65.36 34.24 65.97 34.17 66.56 34.00
  C 66.93 33.89 66.98 33.70 66.73 33.41
  C 62.95 29.09 66.58 25.29 69.94 22.48
  C 70.21 22.26 70.36 21.98 70.39 21.64
  L 70.61 19.35
  C 70.68 18.59 70.88 18.56 71.21 19.25
  L 73.06 23.18
  C 73.18 23.43 73.38 23.57 73.66 23.60
  L 74.11 23.64
  C 74.46 23.67 74.66 23.85 74.72 24.19
  C 75.30 27.48 78.55 31.21 74.21 33.74
  Z"
/>
<path d="
  M 161.79 32.94
  C 158.81 32.71 155.98 33.74 153.18 32.93
  C 157.14 32.16 153.10 26.87 151.88 25.59
  C 151.65 25.35 151.42 25.36 151.19 25.61
  C 149.77 27.21 148.02 30.68 149.85 32.53
  C 146.46 33.46 144.10 33.23 142.76 31.82
  L 147.29 31.22
  C 147.63 31.18 147.79 30.99 147.77 30.65
  C 147.74 29.87 147.43 29.13 147.45 28.43
  C 147.57 24.69 151.09 23.09 152.03 19.84
  C 152.40 18.55 152.73 18.56 153.01 19.87
  C 153.87 23.91 157.79 25.55 155.93 30.33
  C 155.74 30.83 156.10 31.37 156.63 31.38
  C 158.12 31.41 159.64 31.58 161.18 31.89
  C 161.43 31.94 161.62 32.05 161.74 32.20
  C 161.95 32.45 161.96 32.70 161.79 32.94
  Z"
/>
<path d="
  M 239.31 42.13
  C 239.68 42.14 240.07 42.01 240.49 41.76
  L 242.72 41.49
  L 243.57 42.34
  C 243.50 42.15 243.39 42.08 243.24 42.13
  C 243.14 42.16 243.07 42.24 243.06 42.34
  L 242.89 44.56
  C 242.86 44.95 242.66 45.16 242.27 45.19
  C 240.80 45.34 239.40 45.16 238.05 44.66
  C 237.74 44.55 237.41 44.51 237.08 44.55
  C 236.27 44.66 235.62 44.35 235.15 43.64
  C 234.34 42.45 233.35 42.17 232.18 42.80
  C 231.90 42.95 231.62 42.95 231.34 42.80
  C 229.86 41.99 227.63 40.53 227.57 38.56
  C 227.56 38.14 227.73 38.04 228.09 38.26
  C 229.86 39.35 230.99 40.66 233.00 41.37
  C 234.92 42.04 236.74 42.94 238.46 44.05
  C 238.79 44.26 239.22 44.17 239.44 43.84
  L 240.18 42.71
  C 240.43 42.32 240.33 42.13 239.86 42.13
  L 239.31 42.13
  Z"
/>
<path d="
  M 123.48 65.45
  C 123.13 65.30 122.82 65.50 122.56 66.07
  C 122.42 66.37 122.19 66.61 121.90 66.77
  C 121.02 67.24 120.14 67.67 119.26 68.08
  C 118.85 68.27 118.40 68.24 117.90 67.97
  C 117.73 67.88 117.61 67.92 117.52 68.09
  L 117.08 68.98
  C 116.91 69.32 116.63 69.48 116.24 69.45
  C 115.55 69.40 115.08 68.79 114.82 67.64
  L 116.19 66.60
  C 116.46 66.39 116.65 66.13 116.77 65.82
  C 118.14 62.25 120.39 62.40 123.62 61.72
  C 123.98 61.64 124.26 62.01 124.09 62.33
  C 123.58 63.27 123.38 64.31 123.48 65.45
  Z"
/>
<path d="
  M 113.03 69.75
  C 113.76 69.65 114.26 69.82 114.52 70.25
  C 114.68 70.52 114.77 71.16 114.79 72.17
  L 114.47 72.52
  C 112.96 72.64 112.16 72.14 112.05 71.01
  C 112.18 70.50 112.51 70.08 113.03 69.75
  Z"
/>
<path d="
  M 61.03 72.56
  C 60.32 73.72 59.79 75.16 59.42 76.89
  C 58.37 75.42 58.01 74.03 58.36 72.74
  C 58.45 72.39 58.67 72.17 59.01 72.07
  C 59.64 71.88 60.31 72.05 61.03 72.56
  Z"
/>
<path d="
  M 65.23 144.73
  L 64.35 148.71
  C 64.22 149.28 64.33 149.87 64.65 150.36
  L 65.22 151.24
  C 65.40 151.52 65.83 151.41 65.86 151.08
  C 65.97 149.45 66.61 148.08 67.76 146.97
  C 68.00 146.79 68.22 146.88 68.42 147.23
  C 67.57 148.40 67.15 149.53 67.18 150.63
  C 67.19 150.99 67.46 151.29 67.82 151.34
  L 70.41 151.69
  C 70.70 151.73 70.99 151.64 71.21 151.45
  C 72.56 150.30 72.72 149.06 71.69 147.73
  L 75.59 152.03
  C 75.58 153.76 74.78 154.85 73.21 155.29
  L 64.22 153.69
  C 63.42 153.54 62.96 153.33 62.83 153.05
  C 62.48 151.70 61.70 150.71 60.47 150.09
  L 59.74 144.16
  C 59.69 143.77 59.86 143.62 60.24 143.70
  L 65.23 144.73
  Z"
/>
</g>
<g stroke-width="2.00" fill="none" stroke-linecap="butt">
<path stroke="#b33d0d" vector-effect="non-scaling-stroke" d="
  M 247.94 43.13
  C 248.17 43.07 248.35 42.95 248.49 42.77
  C 248.81 42.36 248.72 42.24 248.23 42.41
  L 244.23 43.86
  C 243.98 43.95 243.84 44.22 243.91 44.48
  L 244.06 45.02
  C 244.19 45.49 244.45 45.58 244.84 45.29
  L 247.52 43.34
  C 247.65 43.25 247.79 43.18 247.94 43.13"
/>
<path stroke="#ea5b07" vector-effect="non-scaling-stroke" d="
  M 154.92 74.81
  L 147.72 74.71
  C 147.47 74.71 147.26 74.91 147.26 75.15
  L 147.26 75.46
  C 147.23 77.18 148.73 78.58 150.60 78.61
  L 151.92 78.63
  C 153.80 78.66 155.33 77.29 155.36 75.58
  L 155.36 75.27
  C 155.36 75.02 155.17 74.81 154.92 74.81"
/>
</g>
<path fill="#f76f0a" fill-opacity="0.996" d="
  M 154.92 74.81
  C 155.17 74.81 155.36 75.02 155.36 75.27
  L 155.36 75.58
  C 155.33 77.29 153.80 78.66 151.92 78.63
  L 150.60 78.61
  C 148.73 78.58 147.23 77.18 147.26 75.46
  L 147.26 75.15
  C 147.26 74.91 147.47 74.71 147.72 74.71
  L 154.92 74.81
  Z"
/>
<g fill="#240703">
<path d="
  M 38.3200 75.1536
  C 38.32 75.93 34.12 76.56 28.9324 76.5700
  C 23.75 76.58 19.54 75.96 19.5400 75.1864
  C 19.54 74.41 23.74 73.78 28.9276 73.7700
  C 34.11 73.76 38.32 74.38 38.3200 75.1536
  Z"
/>
<path d="
  M 119.6697 149.8527
  C 119.66 150.33 116.98 150.69 113.6709 150.6600
  C 110.36 150.63 107.69 150.21 107.6903 149.7273
  C 107.70 149.25 110.38 148.89 113.6891 148.9200
  C 117.00 148.95 119.67 149.37 119.6697 149.8527
  Z"
/>
<path d="
  M 18.16 153.43
  C 18.02 153.44 17.89 153.34 17.87 153.20
  L 17.82 152.75
  C 17.68 151.65 18.71 150.62 20.12 150.44
  L 24.78 149.86
  C 26.19 149.68 27.45 150.44 27.58 151.54
  L 27.64 151.98
  C 27.66 152.13 27.55 152.26 27.41 152.27
  L 18.16 153.43
  Z"
/>
<path d="
  M 241.42 158.31
  C 241.44 158.56 241.57 158.66 241.81 158.63
  L 242.28 158.58
  C 242.50 158.55 242.62 158.43 242.65 158.21
  C 242.72 157.52 242.63 156.87 242.38 156.24
  C 242.27 155.95 242.57 155.67 242.85 155.81
  C 242.99 155.88 243.09 156.00 243.16 156.16
  C 243.24 156.34 243.38 156.43 243.57 156.43
  C 246.20 156.40 248.64 156.66 251.13 157.48
  C 252.23 157.84 252.16 159.42 251.03 159.68
  C 244.80 161.10 238.94 161.18 233.45 159.91
  C 232.93 159.79 232.52 159.64 232.22 159.45
  C 231.19 158.81 231.56 157.24 232.76 157.12
  L 240.77 156.33
  C 241.04 156.30 241.29 156.51 241.31 156.78
  L 241.42 158.31
  Z"
/>
</g>
<path fill="#fbf6e8" d="
  M 151.80 69.68
  C 151.48 70.04 151.09 70.26 150.64 70.34
  C 150.30 70.40 149.96 70.19 149.87 69.85
  C 149.06 66.68 150.23 64.85 152.37 62.69
  C 152.58 62.48 152.75 62.51 152.87 62.78
  C 153.95 65.15 156.05 67.05 154.10 69.96
  C 153.90 70.26 153.50 70.33 153.21 70.12
  L 152.54 69.61
  C 152.27 69.41 152.03 69.43 151.80 69.68
  Z"
/>
<g fill="#0b0404">
<path d="
  M 79.9399 72.6186
  C 79.94 73.45 76.63 74.10 72.5521 74.0800
  C 68.48 74.06 65.18 73.37 65.1801 72.5414
  C 65.18 71.71 68.49 71.06 72.5679 71.0800
  C 76.64 71.10 79.94 71.79 79.9399 72.6186
  Z"
/>
<path d="
  M 158.5000 72.6014
  C 158.50 73.18 155.57 73.65 151.9482 73.6400
  C 148.33 73.63 145.40 73.16 145.4000 72.5786
  C 145.40 72.00 148.33 71.53 151.9518 71.5400
  C 155.57 71.55 158.50 72.02 158.5000 72.6014
  Z"
/>
</g>
<path fill="#f25f15" fill-opacity="0.996" d="
  M 247.52 43.34
  L 244.84 45.29
  C 244.45 45.58 244.19 45.49 244.06 45.02
  L 243.91 44.48
  C 243.84 44.22 243.98 43.95 244.23 43.86
  L 248.23 42.41
  C 248.72 42.24 248.81 42.36 248.49 42.77
  C 248.35 42.95 248.17 43.07 247.94 43.13
  C 247.79 43.18 247.65 43.25 247.52 43.34
  Z"
/>
</svg>
