<?xml version="1.0" encoding="UTF-8" standalone="no"?>
<!DOCTYPE svg PUBLIC "-//W3C//DTD SVG 1.1//EN" "http://www.w3.org/Graphics/SVG/1.1/DTD/svg11.dtd">
<svg xmlns="http://www.w3.org/2000/svg" version="1.1" viewBox="0.00 0.00 300.00 300.00">
<g stroke-width="2.00" fill="none" stroke-linecap="butt">
<path stroke="#fcd03c" vector-effect="non-scaling-stroke" d="
  M 170.80 91.98
  C 170.18 94.54 168.77 95.91 166.57 96.10
  C 166.46 96.11 166.34 96.10 166.23 96.08
  C 165.42 95.91 164.65 96.06 163.93 96.54
  C 163.64 96.73 163.33 96.78 162.99 96.71
  C 159.87 95.98 156.76 95.93 153.65 96.56
  C 152.21 96.85 150.79 96.39 149.25 96.88
  C 148.97 96.97 148.69 96.97 148.40 96.90
  L 141.93 95.30
  C 141.64 95.23 141.41 95.31 141.24 95.56
  C 141.18 95.64 141.10 95.78 141.01 95.98
  C 140.84 96.31 140.63 96.35 140.36 96.10
  C 139.75 95.52 139.33 94.92 139.12 94.29"
/>
<path stroke="#f9aa23" vector-effect="non-scaling-stroke" d="
  M 137.35 175.21
  C 135.84 175.41 134.94 176.20 134.65 177.58
  C 134.55 178.06 134.30 178.16 133.90 177.88
  L 133.63 177.68
  C 133.30 177.45 133.14 177.53 133.16 177.94
  C 133.17 178.05 133.16 178.18 133.15 178.34
  C 133.14 178.59 133.03 178.76 132.81 178.87
  L 115.80 187.00
  C 115.58 187.10 115.35 187.15 115.11 187.13
  C 114.82 187.10 114.53 187.15 114.26 187.27
  C 110.35 188.96 106.51 190.81 102.75 192.83
  C 102.68 192.86 102.65 192.92 102.65 192.99
  L 102.64 193.40
  C 102.64 193.58 102.41 193.66 102.29 193.53
  C 102.00 193.22 101.66 193.17 101.25 193.40
  C 101.16 193.45 100.88 193.56 100.41 193.72
  C 100.02 193.85 99.85 194.15 99.89 194.62
  C 99.92 194.93 99.79 195.14 99.51 195.25
  L 97.64 196.05
  C 97.40 196.15 97.20 196.10 97.05 195.89
  L 96.74 195.47
  C 96.45 195.08 96.20 195.10 96.00 195.55
  L 95.78 196.04
  C 95.67 196.29 95.52 196.32 95.33 196.11
  C 95.12 195.87 94.96 195.83 94.87 195.98"
/>
<path stroke="#e95d20" vector-effect="non-scaling-stroke" d="
  M 238.46 178.42
  C 238.22 178.66 237.97 178.68 237.72 178.48
  C 237.53 178.33 237.37 178.35 237.22 178.54
  C 237.13 178.67 237.10 178.83 237.15 179.00
  C 237.24 179.35 237.11 179.39 236.76 179.10
  C 235.48 178.05 234.13 178.83 232.91 178.78
  C 224.68 178.47 218.79 178.43 215.24 178.67
  C 213.90 178.76 212.89 178.70 212.22 178.49
  C 211.91 178.40 211.60 178.38 211.29 178.43
  C 210.06 178.63 209.02 177.82 208.25 177.69
  C 203.23 176.78 197.73 177.15 193.30 176.24
  C 189.89 175.54 186.53 174.63 183.21 173.50
  C 182.87 173.39 182.60 173.48 182.40 173.78
  C 182.23 174.03 182.02 174.14 181.76 174.13
  C 181.31 174.12 180.95 174.02 180.87 173.89
  C 180.79 173.74 180.67 173.70 180.51 173.77
  C 180.22 173.90 180.10 173.79 180.13 173.44
  C 180.15 173.19 180.01 172.99 179.72 172.84"
/>
</g>
<g fill="#f68f1f">
<path d="
  M 171.56 113.14
  C 176.83 101.04 179.39 89.90 174.53 77.42
  C 173.25 74.14 171.59 70.81 171.55 67.38
  C 171.51 62.73 173.03 58.64 176.10 55.09
  C 176.93 54.14 177.26 54.29 177.11 55.54
  C 175.58 67.97 185.36 74.46 192.87 82.40
  C 197.04 86.80 199.94 90.35 201.57 93.05
  C 210.20 107.29 211.06 130.65 197.70 142.46
  C 188.94 150.20 176.86 159.97 175.42 172.50
  C 175.33 173.29 175.11 173.33 174.75 172.62
  C 165.36 154.14 163.06 132.64 171.56 113.14
  Z"
/>
<path d="
  M 61.91 149.23
  C 64.86 126.93 72.43 106.59 84.14 87.41
  C 84.38 87.02 84.65 86.72 84.96 86.51
  C 85.12 86.40 85.34 86.52 85.33 86.71
  C 84.67 106.38 90.61 123.70 103.15 138.67
  C 103.38 138.96 103.41 139.26 103.24 139.59
  C 101.93 142.02 100.58 144.45 99.21 146.90
  C 89.41 164.31 87.42 181.37 89.54 200.11
  C 89.59 200.53 89.44 200.62 89.09 200.37
  C 82.00 195.40 75.09 190.06 68.37 184.37
  C 57.66 175.31 60.31 161.32 61.91 149.23
  Z"
/>
<path d="
  M 137.35 175.21
  C 134.34 193.84 137.45 210.84 141.27 229.37
  C 143.90 242.10 146.31 255.69 145.61 268.78
  C 145.59 269.06 145.37 269.27 145.09 269.28
  C 144.76 269.28 144.40 269.19 144.00 269.01
  C 130.23 263.01 117.00 255.99 104.32 247.94
  C 81.88 233.70 66.97 212.40 62.26 186.23
  C 62.17 185.74 62.30 185.67 62.65 186.03
  C 73.13 196.62 85.53 205.20 98.19 212.93
  C 99.38 213.66 99.70 213.38 99.16 212.09
  C 97.12 207.20 95.69 201.83 94.87 195.98
  C 94.96 195.83 95.12 195.87 95.33 196.11
  C 95.52 196.32 95.67 196.29 95.78 196.04
  L 96.00 195.55
  C 96.20 195.10 96.45 195.08 96.74 195.47
  L 97.05 195.89
  C 97.20 196.10 97.40 196.15 97.64 196.05
  L 99.51 195.25
  C 99.79 195.14 99.92 194.93 99.89 194.62
  C 99.85 194.15 100.02 193.85 100.41 193.72
  C 100.88 193.56 101.16 193.45 101.25 193.40
  C 101.66 193.17 102.00 193.22 102.29 193.53
  C 102.41 193.66 102.64 193.58 102.64 193.40
  L 102.65 192.99
  C 102.65 192.92 102.68 192.86 102.75 192.83
  C 106.51 190.81 110.35 188.96 114.26 187.27
  C 114.53 187.15 114.82 187.10 115.11 187.13
  C 115.35 187.15 115.58 187.10 115.80 187.00
  L 132.81 178.87
  C 133.03 178.76 133.14 178.59 133.15 178.34
  C 133.16 178.18 133.17 178.05 133.16 177.94
  C 133.14 177.53 133.30 177.45 133.63 177.68
  L 133.90 177.88
  C 134.30 178.16 134.55 178.06 134.65 177.58
  C 134.94 176.20 135.84 175.41 137.35 175.21
  Z"
/>
</g>
<path fill="#e13024" d="
  M 140.06 183.51
  C 142.58 166.81 150.80 151.33 158.67 136.25
  C 159.80 134.08 160.10 134.19 159.57 136.58
  C 158.09 143.25 157.68 151.59 159.48 158.14
  C 160.19 160.72 161.75 163.91 164.15 167.72
  C 166.79 171.90 169.36 176.12 171.85 180.37
  C 183.31 199.85 189.10 225.20 179.69 246.39
  C 174.18 258.81 165.23 266.29 151.77 268.55
  C 151.38 268.62 151.12 268.47 150.98 268.10
  C 150.95 268.01 150.94 267.82 150.95 267.51
  C 151.35 257.14 150.95 246.80 149.74 236.50
  C 149.13 231.26 148.32 227.32 145.67 222.31
  C 139.34 210.36 138.08 196.67 140.06 183.51
  Z"
/>
<path fill="#fbc427" d="
  M 170.80 91.98
  C 168.38 107.95 158.83 119.87 151.84 134.36
  C 145.64 147.20 139.82 161.11 137.35 175.21
  C 135.84 175.41 134.94 176.20 134.65 177.58
  C 134.55 178.06 134.30 178.16 133.90 177.88
  L 133.63 177.68
  C 133.30 177.45 133.14 177.53 133.16 177.94
  C 133.17 178.05 133.16 178.18 133.15 178.34
  C 133.14 178.59 133.03 178.76 132.81 178.87
  L 115.80 187.00
  C 115.58 187.10 115.35 187.15 115.11 187.13
  C 114.82 187.10 114.53 187.15 114.26 187.27
  C 110.35 188.96 106.51 190.81 102.75 192.83
  C 102.68 192.86 102.65 192.92 102.65 192.99
  L 102.64 193.40
  C 102.64 193.58 102.41 193.66 102.29 193.53
  C 102.00 193.22 101.66 193.17 101.25 193.40
  C 101.16 193.45 100.88 193.56 100.41 193.72
  C 100.02 193.85 99.85 194.15 99.89 194.62
  C 99.92 194.93 99.79 195.14 99.51 195.25
  L 97.64 196.05
  C 97.40 196.15 97.20 196.10 97.05 195.89
  L 96.74 195.47
  C 96.45 195.08 96.20 195.10 96.00 195.55
  L 95.78 196.04
  C 95.67 196.29 95.52 196.32 95.33 196.11
  C 95.12 195.87 94.96 195.83 94.87 195.98
  C 92.31 181.50 96.39 165.25 102.82 152.56
  C 108.60 141.16 117.38 130.35 124.90 119.43
  C 130.39 111.44 135.13 103.06 139.12 94.29
  C 139.33 94.92 139.75 95.52 140.36 96.10
  C 140.63 96.35 140.84 96.31 141.01 95.98
  C 141.10 95.78 141.18 95.64 141.24 95.56
  C 141.41 95.31 141.64 95.23 141.93 95.30
  L 148.40 96.90
  C 148.69 96.97 148.97 96.97 149.25 96.88
  C 150.79 96.39 152.21 96.85 153.65 96.56
  C 156.76 95.93 159.87 95.98 162.99 96.71
  C 163.33 96.78 163.64 96.73 163.93 96.54
  C 164.65 96.06 165.42 95.91 166.23 96.08
  C 166.34 96.10 166.46 96.11 166.57 96.10
  C 168.77 95.91 170.18 94.54 170.80 91.98
  Z"
/>
<g fill="#ef711e">
<path d="
  M 238.46 178.42
  C 238.22 178.66 237.97 178.68 237.72 178.48
  C 237.53 178.33 237.37 178.35 237.22 178.54
  C 237.13 178.67 237.10 178.83 237.15 179.00
  C 237.24 179.35 237.11 179.39 236.76 179.10
  C 235.48 178.05 234.13 178.83 232.91 178.78
  C 224.68 178.47 218.79 178.43 215.24 178.67
  C 213.90 178.76 212.89 178.70 212.22 178.49
  C 211.91 178.40 211.60 178.38 211.29 178.43
  C 210.06 178.63 209.02 177.82 208.25 177.69
  C 203.23 176.78 197.73 177.15 193.30 176.24
  C 189.89 175.54 186.53 174.63 183.21 173.50
  C 182.87 173.39 182.60 173.48 182.40 173.78
  C 182.23 174.03 182.02 174.14 181.76 174.13
  C 181.31 174.12 180.95 174.02 180.87 173.89
  C 180.79 173.74 180.67 173.70 180.51 173.77
  C 180.22 173.90 180.10 173.79 180.13 173.44
  C 180.15 173.19 180.01 172.99 179.72 172.84
  C 181.87 166.59 185.60 161.11 190.92 156.40
  C 196.07 151.84 201.95 147.39 205.63 143.12
  C 214.38 132.98 217.20 120.95 216.91 107.61
  C 216.90 107.30 217.00 107.26 217.21 107.50
  C 233.41 126.51 243.27 153.46 238.46 178.42
  Z"
/>
<path d="
  M 178.05 256.75
  C 186.32 241.55 194.30 228.93 208.15 218.21
  C 216.47 211.76 226.00 207.43 233.19 199.68
  C 234.05 198.75 234.23 198.87 233.74 200.04
  C 226.20 217.92 216.57 232.56 200.29 243.58
  C 193.21 248.37 185.91 252.86 178.38 257.07
  C 177.90 257.34 177.79 257.23 178.05 256.75
  Z"
/>
</g>
<path fill="#fcdb51" d="
  M 170.80 91.98
  C 170.18 94.54 168.77 95.91 166.57 96.10
  C 166.46 96.11 166.34 96.10 166.23 96.08
  C 165.42 95.91 164.65 96.06 163.93 96.54
  C 163.64 96.73 163.33 96.78 162.99 96.71
  C 159.87 95.98 156.76 95.93 153.65 96.56
  C 152.21 96.85 150.79 96.39 149.25 96.88
  C 148.97 96.97 148.69 96.97 148.40 96.90
  L 141.93 95.30
  C 141.64 95.23 141.41 95.31 141.24 95.56
  C 141.18 95.64 141.10 95.78 141.01 95.98
  C 140.84 96.31 140.63 96.35 140.36 96.10
  C 139.75 95.52 139.33 94.92 139.12 94.29
  C 146.69 75.31 144.87 53.86 142.10 34.27
  C 141.95 33.24 142.16 33.16 142.72 34.04
  C 151.49 47.93 159.25 60.18 167.26 75.76
  C 170.12 81.32 171.30 86.73 170.80 91.98
  Z"
/>
<path fill="#e24822" d="
  M 179.72 172.84
  C 180.01 172.99 180.15 173.19 180.13 173.44
  C 180.10 173.79 180.22 173.90 180.51 173.77
  C 180.67 173.70 180.79 173.74 180.87 173.89
  C 180.95 174.02 181.31 174.12 181.76 174.13
  C 182.02 174.14 182.23 174.03 182.40 173.78
  C 182.60 173.48 182.87 173.39 183.21 173.50
  C 186.53 174.63 189.89 175.54 193.30 176.24
  C 197.73 177.15 203.23 176.78 208.25 177.69
  C 209.02 177.82 210.06 178.63 211.29 178.43
  C 211.60 178.38 211.91 178.40 212.22 178.49
  C 212.89 178.70 213.90 178.76 215.24 178.67
  C 218.79 178.43 224.68 178.47 232.91 178.78
  C 234.13 178.83 235.48 178.05 236.76 179.10
  C 237.11 179.39 237.24 179.35 237.15 179.00
  C 237.10 178.83 237.13 178.67 237.22 178.54
  C 237.37 178.35 237.53 178.33 237.72 178.48
  C 237.97 178.68 238.22 178.66 238.46 178.42
  C 236.57 189.43 232.26 197.18 222.96 202.65
  C 210.80 209.81 199.02 215.89 190.25 227.39
  C 189.44 228.46 189.09 228.32 189.22 226.99
  C 190.63 211.92 187.77 197.57 180.65 183.94
  C 178.47 179.77 178.24 177.07 179.72 172.84
  Z"
/>
<path fill="#fbb61f" d="
  M 135.00 78.00
  C 134.96 99.88 119.41 116.87 107.08 134.62
  C 106.92 134.85 106.58 134.84 106.42 134.61
  C 101.30 126.97 94.76 115.92 98.68 106.41
  C 99.39 104.68 101.13 102.22 103.90 99.03
  C 113.76 87.69 126.06 76.80 132.71 63.20
  C 133.18 62.24 133.52 62.29 133.71 63.34
  C 134.58 68.13 135.01 73.02 135.00 78.00
  Z"
/>
</svg>
